<?xml version="1.0" encoding="utf-8"?>
<!-- Generator: Adobe Illustrator 26.3.1, SVG Export Plug-In . SVG Version: 6.00 Build 0)  -->
<svg version="1.1" id="Layer_1" xmlns="http://www.w3.org/2000/svg" xmlns:xlink="http://www.w3.org/1999/xlink" x="0px" y="0px"
	 viewBox="0 0 200 200" style="enable-background:new 0 0 200 200;" xml:space="preserve">
<g>
	<g>
		<path d="M88.18,86.36c-4.25-0.01-8.55-0.14-12.75-0.85c-1.55-0.26-3.75-0.82-5.47-1.64c-1.59-0.76-3.29-2.16-1.52-3.76
			c2.33-2.12,5.11-2.26,7.87-2.12c4.32,0.22,8.73,0.66,12.99-0.38c0.83-0.2,0.82-0.51-0.02-0.66c-1.1-0.2-2.45-0.16-3.53,0.11
			c-1.46,0.36-2.37,0.3-3.94,0.22c-2.04-0.1-4.07-0.27-6.11-0.29c-3.9-0.03-8.43,0.18-11.66,2.66c-4.83,3.73,4.92,6.07,7.4,6.54
			c5.04,0.97,10.31,1.1,15.42,1.1c0.64,0,1.29-0.01,1.92-0.11c0.15-0.02,1.01-0.11,1.14-0.32C90.27,86.38,88.34,86.36,88.18,86.36
			L88.18,86.36z"/>
	</g>
</g>
<g>
	<g>
		<path d="M84.01,69.56c0.53,0.6,1.09,1.18,1.69,1.72c0.2,0.2,0.43,0.34,0.68,0.43c0.21,0.11,0.43,0.16,0.67,0.14
			c0.23-0.01,0.42-0.09,0.56-0.25c0.19-0.13,0.31-0.3,0.36-0.53c0.03-0.16,0.06-0.33,0.09-0.49c0.01-0.4-0.05-0.78-0.18-1.16
			c-0.09-0.2-0.18-0.41-0.27-0.61c-0.21-0.38-0.47-0.72-0.79-1.01c-0.35-0.32-0.69-0.65-1.02-0.99c0.14,0.15,0.28,0.3,0.42,0.45
			c-0.08-0.09-0.17-0.18-0.25-0.27c-0.18-0.25-0.4-0.45-0.65-0.61c-0.2-0.17-0.43-0.29-0.69-0.36c-0.22-0.08-0.44-0.07-0.65,0.01
			c-0.22,0.03-0.39,0.14-0.52,0.33c-0.07,0.13-0.14,0.26-0.2,0.4c-0.1,0.35-0.12,0.7-0.06,1.05c0.05,0.2,0.1,0.4,0.15,0.6
			C83.52,68.81,83.74,69.2,84.01,69.56L84.01,69.56z"/>
	</g>
</g>
<g>
	<g>
		<path d="M95.51,67.16c-0.06,0.25-0.16,0.5-0.28,0.73c0.07-0.13,0.14-0.27,0.21-0.4c-0.1,0.19-0.22,0.37-0.36,0.54
			c-0.15,0.19-0.24,0.41-0.26,0.65c-0.07,0.27-0.08,0.54-0.02,0.81c0.04,0.32,0.13,0.62,0.28,0.91c0.12,0.31,0.28,0.6,0.5,0.86
			c0.14,0.15,0.28,0.3,0.42,0.45c0.27,0.24,0.58,0.42,0.92,0.52c0.15,0.01,0.3,0.03,0.45,0.04c0.3-0.03,0.55-0.16,0.73-0.4
			c0.24-0.3,0.42-0.64,0.59-0.99c0.11-0.22,0.19-0.44,0.25-0.68c0.09-0.25,0.11-0.51,0.08-0.78c0-0.3-0.05-0.6-0.16-0.88
			c-0.1-0.32-0.25-0.62-0.45-0.89c-0.16-0.28-0.36-0.52-0.61-0.73c-0.15-0.11-0.3-0.22-0.46-0.33c-0.28-0.17-0.59-0.25-0.92-0.24
			c-0.14,0.04-0.27,0.08-0.41,0.12C95.78,66.64,95.6,66.87,95.51,67.16L95.51,67.16z"/>
	</g>
</g>
<g>
	<g>
		<path d="M80.88,78.52c-0.91-1.23-2.49-2.24-2.29-3.95c0.17-1.46,1.49-2.52,1.25-4.07c-0.41-2.64-2.95-5.44-1.79-8.15
			c0.86-2.02,3.17-3.01,5.12-3.62c2.3-0.72,4.71-1.06,7.1-1.31c7.94-0.83,15.81-0.48,23.76-0.28c0.86,0.02,1.73,0.16,2.59,0.18
			c0.58,0.01,1.84,0.89-1.25-0.75c-0.49-0.26-0.99-0.53-1.48-0.79c0.05,0.08,0.1,0.15,0.13,0.24c0.05,0.25,0.19,0.51,0.26,0.77
			c0.41,1.55,0.23,2.94-0.55,4.34c-0.7,1.25-1.61,2.36-2.05,3.74c-0.56,1.74,0.21,3.23,0.97,4.78c0.94,1.91,1.78,3.84,2.77,5.74
			c0.97,1.86,1.5,3.79,1.99,5.83c0.88,3.69,1.73,7.5,4.39,10.36c0.74,0.8,1.97,1.32,2.98,1.69c0.3,0.11,1.78,0.57,1.09-0.17
			c-2.52-2.71-3.25-6.62-4.08-10.11c-0.43-1.83-0.9-3.59-1.75-5.28c-0.94-1.85-1.82-3.7-2.7-5.58c-0.86-1.85-1.83-3.4-1.01-5.46
			c0.54-1.36,1.53-2.48,2.15-3.79c0.67-1.41,0.62-2.91,0.16-4.39c-0.52-1.65-2.48-2.51-3.96-3.07c-1.61-0.61-3.34-0.63-5.04-0.67
			c-2.33-0.05-4.66-0.17-6.99-0.24c-4.77-0.15-9.55-0.12-14.31,0.32c-2.3,0.21-4.59,0.43-6.86,0.89c-2.34,0.48-5,1.19-6.79,2.88
			c-2.55,2.41-0.78,5.72,0.26,8.46c0.32,0.85,0.62,1.56,0.34,2.47c-0.26,0.87-0.87,1.6-1.09,2.48c-0.49,2.04,1.21,3.15,2.27,4.58
			c0.59,0.8,1.71,1.29,2.6,1.68C79.25,78.34,81.16,78.9,80.88,78.52L80.88,78.52z"/>
	</g>
</g>
<g>
	<g>
		<path d="M125.39,91.89c-3.59,0.97-7.49,0.46-11.14,0.25c-3.73-0.21-7.59-0.23-11.15,1.09c-1.74,0.65-3.35,1.63-4.74,2.86
			c-1.14,1.01-2.07,2.24-3.21,3.25c-1.1,0.98-2.61,1.56-3.92,2.2c-1.83,0.89-3.7,1.73-5.68,2.22c0.32,0.13,0.65,0.27,0.97,0.4
			c0.64-1.77-0.61-3.09-1.56-4.44c-1.26-1.78-1.35-3.96-2.31-5.87c-0.79-1.58-1.87-3.22-3.16-4.43c-1.08-1.01-2.56-1.63-1.69-3.31
			c0.5-0.96-0.86-0.73-1.36-0.57c-0.96,0.31-2.32,1.01-2.82,1.97c-0.83,1.59-0.64,2.64,0.74,3.75c1.42,1.14,2.49,2.57,3.42,4.13
			c1.12,1.87,1.27,4.06,2.29,5.95c0.82,1.54,2.74,2.9,2.04,4.82c-0.19,0.52,0.77,0.45,0.97,0.4c4.22-1.03,8.22-2.98,12-5.09
			c1.53-0.85,2.85-1.93,4.08-3.17c0.82-0.83,1.64-2.1,2.69-2.63c1.31-0.67,3.22-0.7,4.66-0.74c1.9-0.06,3.8,0.05,5.7,0.17
			c3.97,0.24,7.85,0.36,11.72-0.69c0.92-0.25,2.43-1.04,2.82-1.97C127.17,91.47,125.96,91.74,125.39,91.89L125.39,91.89z"/>
	</g>
</g>
<g>
	<g>
		<path d="M123.14,91.91c-0.28,1.9,0.21,3.66,0.89,5.42c0.74,1.9,1.32,3.81,1.8,5.79c1.03,4.24,1.61,8.5,2.36,12.79
			c0.66,3.8,2.76,7.57,1.54,11.43c-1.19,3.78-3.74,7.08-5.57,10.56c-0.99,1.89-1.92,3.8-2.86,5.72c-0.79,1.61-1.73,3.1-2.62,4.66
			c-0.81,1.43-1.45,2.97-1.29,4.65c0.18,1.89,1.23,3.72,2.3,5.24c1.05,1.5,2.33,2.79,3.47,4.22c0.54,0.68,1.27,1.59,1.13,2.51
			c-0.21,1.46-2.18,2.07-3.4,2.33c-1.64,0.36-3.38,0.34-5.05,0.27c-3.62-0.14-7.12-0.37-10.75-0.08c-4.21,0.33-8.45,0.91-12.67,0.38
			c-2.25-0.28-4.46-0.95-6.69-1.4c-2.05-0.42-4.13-0.84-6.1-1.57c-0.77-0.29-1.7-0.76-2.28-1.11c-0.08-0.05-0.14-0.12-0.21-0.17
			c-0.22-0.15,0.08,0.05,0.05,0.06c-0.06,0.04-0.16-0.23,0.06,0.08c0.15,0.21,0.27,0.39,0.41,0.62c0.4,0.7,0.21,0.71,0.27,0.09
			c0.09-0.99,0.76-1.86,1.38-2.59c1.12-1.31,2.28-2.59,3.21-4.06c0.82-1.29,1.79-2.83,2.17-4.32c0.39-1.54-0.64-3.17-1.43-4.4
			c-1.92-3-4.55-5.52-6.33-8.6c-1.71-2.97-1.92-6.13-2.47-9.43c-0.66-4.01-2.1-7.82-3.2-11.72c-1.09-3.88-1.52-7.78-0.8-11.77
			c0.68-3.78,2.27-7.14,4.16-10.45c0.87-1.52,1.75-3.07,2.19-4.78c0.24-0.9-0.78-2.19-1.3-2.83c-0.18-0.22-1.53-1.73-1.74-0.92
			c-0.94,3.6-3.49,6.61-4.86,10.06c-1.48,3.73-2.13,7.75-1.82,11.75c0.33,4.21,1.81,8.22,3.02,12.23c0.61,2.04,1.15,4.09,1.44,6.21
			c0.25,1.86,0.45,3.68,0.95,5.5c1,3.64,2.95,6.91,5.21,9.89c1.15,1.51,2.4,2.94,3.51,4.49c0.15,0.21,0.55,0.7,0.57,0.81
			c-0.07-0.36-0.09,0.11-0.13,0.22c-0.32,0.82-0.69,1.61-1.08,2.4c-0.82,1.66-1.92,3.12-3.12,4.52c-0.85,0.99-1.81,1.94-2.31,3.17
			c-0.94,2.3,0.7,4.86,2.25,6.47c2.96,3.1,7.79,3.76,11.79,4.57c2.9,0.59,5.68,1.34,8.67,1.4c4.41,0.08,8.78-0.67,13.18-0.79
			c3.47-0.1,6.93,0.5,10.4,0.26c2.84-0.2,6.71-1.16,5.79-4.79c-0.9-3.57-3.62-6.29-5.87-9.04c-2.28-2.78,0.65-6.07,2.05-8.58
			c2.09-3.77,3.75-7.75,5.97-11.46c1.98-3.33,4.41-6.95,3.82-11.02c-0.29-2.01-1.11-3.88-1.56-5.85c-0.5-2.19-0.76-4.44-1.09-6.66
			c-0.64-4.29-1.52-8.82-2.97-12.91c-0.67-1.88-1.68-3.65-1.37-5.71c0.14-0.97-0.73-2.13-1.3-2.83
			C124.74,92.66,123.26,91.1,123.14,91.91L123.14,91.91z"/>
	</g>
</g>
<g>
	<g>
		<path d="M83.86,144.32c0.66-1.48,1.5-2.86,2.28-4.27c-1.57,0.34-3.14,0.67-4.72,1.01c1.23,0.79,2.16,2.2,3.08,3.3
			c1.02,1.22,2.06,2.53,3.36,3.48c1.56,1.14,3.72,0.55,5.41-0.01c1.6-0.54,2.25-1.55,2.89-3.04c0.3-0.68,0.55-1.39,0.86-2.06
			c0.16-0.33,0.32-0.66,0.53-0.97c0.14-0.2,0.55-0.51,0.63-0.73c-0.56,0.11-1.13,0.23-1.69,0.34c-1.72,0.05-2.24,0.18-1.56,0.39
			c0.06,0.06,0.2,0.08,0.26,0.14c0.2,0.18,0.39,0.34,0.57,0.56c0.44,0.53,0.76,1.16,1.08,1.77c0.67,1.27,1.21,2.72,2.18,3.81
			c1.18,1.33,2.81,1.04,4.42,0.69c2.22-0.49,3.71-1.28,4.31-3.54c0.43-1.63,0.24-3.91,1.36-5.27c-1.61,0.3-3.22,0.61-4.83,0.91
			c1.71,2.45,2.64,5.38,4.64,7.64c0.38,0.44,1.77,0.06,2.21-0.03c0.86-0.16,1.9-0.34,2.62-0.88c0.96-0.72,1.38-1.99,1.81-3.06
			c0.28-0.68,0.54-1.4,0.95-2.02c0.12-0.19,0.27-0.35,0.41-0.53c1.04-1.37-4.22-0.14-2.91,0.63c1.24,0.74,2.36,1.59,3.34,2.66
			c1.26,1.39,1.84,3.22,3.18,4.55c0.48,0.48,1.97,0.03,2.54-0.09c0.17-0.04,2.53-0.78,2.35-0.95c-1.58-1.57-2.29-3.75-3.93-5.3
			c-1.38-1.3-2.77-2.51-4.77-2.31c-2.15,0.22-4.31,0.72-5.33,2.76c-0.72,1.44-1.05,3.42-2.4,4.43c1.61-0.3,3.22-0.61,4.83-0.91
			c-1.99-2.26-2.93-5.19-4.64-7.64c-0.51-0.74-4.34,0.32-4.83,0.91c-0.85,1.02-0.95,2.51-1.15,3.77c-0.11,0.72-0.23,1.45-0.45,2.14
			c-0.11,0.35-0.24,0.69-0.43,1c-0.08,0.13-0.19,0.24-0.27,0.37c-0.1,0.11-0.21,0.22-0.32,0.31c1.06-0.2,2.11-0.4,3.17-0.6
			c-0.28-0.31-0.8-0.46-1.11-0.84c-0.42-0.52-0.75-1.11-1.06-1.7c-0.62-1.16-1.12-2.42-1.9-3.49c-0.8-1.1-1.66-1.37-3.01-1.24
			c-1.68,0.17-3.92,0.53-4.97,2.02c-0.74,1.05-1.11,2.33-1.62,3.49c-0.27,0.61-0.63,1.1-0.96,1.66c-0.06,0.1-0.21,0.16-0.26,0.25
			c0.59-0.12,1.19-0.23,1.78-0.35c1.82-0.07,2.36-0.2,1.63-0.39c-0.21-0.15-0.49-0.23-0.72-0.38c-2.67-1.78-3.92-5.18-6.61-6.91
			c-0.5-0.32-1.92,0.08-2.43,0.19c-0.53,0.11-2,0.29-2.29,0.82c-0.83,1.5-1.71,2.97-2.41,4.54c-0.11,0.25,2.37-0.05,2.54-0.09
			C82.11,145.15,83.57,144.98,83.86,144.32L83.86,144.32z"/>
	</g>
</g>
<g>
	<g>
		<path d="M99.44,149.56c-0.23,3.3,2.06,5.82,3.77,8.39c2.06,3.1,2.9,6.5,2.13,10.18c-0.04,0.19,2.24-0.7,2.41-0.78
			c0.55-0.28,1.9-0.79,2.05-1.49c0.76-3.67-0.07-7.07-2.13-10.18c-1.71-2.57-4-5.09-3.77-8.39c0.02-0.26-2.25,0.7-2.41,0.78
			C101.01,148.32,99.48,148.91,99.44,149.56L99.44,149.56z"/>
	</g>
</g>
<g>
	<g>
		<path d="M106.53,101.12c-3.26,3.97,1.32,9.14,1.65,13.31c0.12,1.52,0.29,3.11,0.06,4.63c-0.26,1.74-0.95,3.34-1.12,5.11
			c-0.14,1.47-0.17,3.06,0.13,4.51c0.31,1.49,1.11,2.89,1.93,4.16c1.26,1.95,2.71,3.01,5.1,2.91c1.99-0.09,4-0.78,5.72-1.74
			c1.97-1.09,4.32-3.05,4.87-5.32c0.28-1.15-0.15-2.31-0.63-3.34c-0.68-1.46-1.58-3.03-2.81-4.11c-0.88-0.77-1.95-1.2-2.98-1.73
			c-0.23-0.12-0.45-0.24-0.67-0.37c-0.14-0.08-0.28-0.17-0.41-0.27c1.01,2.17,1.35,2.72,1.02,1.65c-0.14-0.73-0.32-1.46-0.5-2.18
			c-0.43-1.77-1.25-3.25-1.94-4.91c-0.77-1.84-0.66-4.07-0.55-6.01c0.05-0.87-0.88-2.08-1.33-2.78c-0.13-0.2-1.23-1.67-1.25-1.29
			c-0.18,3.13,0.2,5.97,1.61,8.8c1.25,2.51,1.39,5.32,2.76,7.81c0.68,1.23,1.45,2.52,2.64,3.31c0.8,0.54,1.72,0.87,2.56,1.33
			c0.39,0.21,0.73,0.48,1.11,0.72c0.06,0.06,0.12,0.12,0.18,0.18c-0.46-0.79-0.92-1.57-1.37-2.36c-0.06,0.22,0.1,0.66,0.08,0.92
			c-0.09,1.19-0.97,2.28-1.75,3.11c-2.42,2.59-6.67,4.83-10.33,4.15c-0.4-0.07-0.79-0.2-1.15-0.39c-1.59-0.84,0.44-0.96,0.7,1.82
			c-0.14-1.52-0.29-2.99-0.15-4.53c0.14-1.51,0.62-2.88,0.97-4.34c0.33-1.36,0.26-2.74,0.16-4.12c-0.17-2.65-0.99-4.85-1.9-7.33
			c-0.84-2.28-1.6-4.93,0.1-7.01c0.33-0.4-0.74-1.99-0.95-2.34C108,102.95,106.69,100.92,106.53,101.12L106.53,101.12z"/>
	</g>
</g>
<g>
	<g>
		<path d="M76.79,64.86c3.58-0.71,7.21-0.88,10.86-0.89c3.55-0.01,7.17-0.1,10.71,0.13c2.69,0.17,4.2,2.31,6.15,3.88
			c1.33,1.06,2.99,1.66,4.7,1.55c0.91-0.06,1.79-0.33,2.62-0.72c0.49-0.23,1.13-0.7,1.69-0.71c0.88-0.02,2.23-0.48,1.98-1.59
			c-0.25-1.1-2-1.46-2.91-1.45c-0.94,0.02-1.81,0.2-2.68,0.56c-0.12,0.05-1.89,0.9-1.9,0.88c0.06,0.12,0.56-0.02,0.55,0.05
			c0-0.09-0.7-0.58-0.76-0.65c-0.49-0.46-0.95-0.97-1.46-1.41c-2.58-2.23-5.61-3.36-9-3.44c-7.52-0.18-15.28-0.57-22.7,0.91
			c-0.94,0.19-1.78,0.95-1.16,1.91C74.1,64.84,75.77,65.06,76.79,64.86L76.79,64.86z"/>
	</g>
</g>
<g>
	<g>
		<path d="M86.97,92.02c2.37,1.06,4.86,1.75,7.47,1.8c2.24,0.04,4.39-0.35,6.56-0.86c3.11-0.73,7.56-1.74,9.07-4.95
			c0.45-0.97-0.64-1.98-1.36-2.46c-0.49-0.33-2.35-1.27-2.79-0.33c-1.26,2.69-4.9,3.56-7.53,4.19c-3.75,0.9-7.5,1.44-11.14-0.19
			c-0.68-0.3-2.11-0.74-2.33,0.34C84.71,90.57,86.23,91.69,86.97,92.02L86.97,92.02z"/>
	</g>
</g>
<g>
	<g>
		<path d="M114.4,58.73c0.09,2.69,2.06,4.8,4.16,6.25c1.83,1.27,3.82,2.2,5.7,3.37c0.83,0.52,2.44,0.54,2.77-0.61
			c0.36-1.24-0.57-2.33-1.55-2.94c-1.57-0.98-3.26-1.74-4.8-2.76c-0.47-0.31,0.34,0.24,0.16,0.11c-0.1-0.07-0.2-0.14-0.29-0.21
			c-0.19-0.14-0.38-0.28-0.56-0.43c-0.19-0.15-0.38-0.32-0.56-0.48c-0.16-0.15-0.43-0.5,0.16,0.17c-0.08-0.09-0.17-0.18-0.25-0.27
			c-0.14-0.16-0.26-0.33-0.38-0.5c0.55,0.72,0.11,0.17,0-0.07c-0.1-0.21-0.14-0.56,0.05,0.16c-0.02-0.08-0.05-0.16-0.07-0.24
			c-0.03-0.11-0.04-0.22-0.07-0.32c0.16,0.63,0.04,0.34,0.03,0.12c-0.04-1.21-1.04-2.39-2.21-2.69c-0.5-0.13-1.12-0.2-1.58,0.1
			C114.68,57.76,114.38,58.2,114.4,58.73L114.4,58.73z"/>
	</g>
</g>
<g>
	<g>
		<path d="M130.69,130.21c0.35,1.12,1.11,1.95,2.14,2.5c0.96,0.52,2.05,0.75,3.1,1.01c0.4,0.1,0.85-0.03,1.22-0.15
			c0.59-0.19,1.21-0.5,1.73-0.85c0.4-0.27,0.9-0.59,1.15-1.01c0.1-0.18,0.29-0.54-0.05-0.63c-1.28-0.32-2.64-0.59-3.71-1.4
			c0.06,0.04,0.12,0.09,0.17,0.13c-0.66-0.51-1.1-1.19-1.35-1.98c-0.09-0.27-0.77-0.14-0.9-0.12c-0.56,0.11-1.17,0.37-1.66,0.65
			c-0.51,0.29-1.05,0.6-1.45,1.03C130.89,129.61,130.59,129.89,130.69,130.21L130.69,130.21z"/>
	</g>
</g>
<g>
	<g>
		<path d="M120.73,169.07c0.77,1.54,2.43,2.23,3.97,2.73c0.6,0.2,1.22,0.36,1.82,0.55c0.17,0.05,0.52,0.19-0.23-0.08
			c0.08,0.03,0.16,0.06,0.24,0.09c0.13,0.05,0.27,0.1,0.4,0.15c0.31,0.13,0.6,0.28,0.88,0.45c-0.16-0.1-0.31-0.2-0.47-0.3
			c0.3,0.19,0.56,0.41,0.8,0.68c-0.12-0.13-0.23-0.26-0.35-0.4c0.04,0.04,0.07,0.08,0.1,0.13c0.37,0.46,0.78,0.75,1.37,0.88
			c0.6,0.13,1.38,0.05,1.92-0.23c0.51-0.26,1.05-0.64,1.27-1.19c0.18-0.46,0.26-1.09-0.08-1.51c-0.58-0.72-1.18-1.22-2-1.67
			c-0.67-0.37-1.41-0.59-2.13-0.82c-0.56-0.18-1.13-0.34-1.7-0.51c-0.25-0.08,0.59,0.2,0.28,0.09c-0.08-0.03-0.16-0.06-0.24-0.08
			c-0.13-0.05-0.25-0.1-0.38-0.15c-0.27-0.11-0.52-0.25-0.76-0.4c0.16,0.1,0.31,0.2,0.47,0.3c-0.25-0.17-0.48-0.36-0.68-0.59
			c0.12,0.13,0.23,0.26,0.35,0.4c-0.15-0.18-0.27-0.37-0.38-0.57c-0.23-0.47-0.9-0.78-1.37-0.88c-0.6-0.13-1.38-0.05-1.92,0.23
			C120.87,166.9,120.16,167.92,120.73,169.07L120.73,169.07z"/>
	</g>
</g>
<g>
	<g>
		<path d="M77.87,169.43c0.11,0.03,0.3,0.12,0.42,0.13c-0.2-0.01-0.35-0.14-0.05,0c0.11,0.05,0.22,0.11,0.33,0.17
			c0.46,0.22-0.44-0.31-0.02-0.02c0.23,0.16,0.45,0.31,0.66,0.49c0.1,0.08,0.19,0.18,0.29,0.24c-0.54-0.34-0.23-0.2-0.05-0.04
			c0.76,0.72,1.42,1.52,2.13,2.27c1.62,1.72,3.5,2.87,5.78,3.51c0.4,0.11,0.95,0.1,1.27-0.21c0.32-0.31,0.36-0.86,0.25-1.27
			c-0.3-1.15-1.3-2.22-2.46-2.54c-0.26-0.07-0.52-0.15-0.78-0.24c-0.1-0.03-0.21-0.1-0.32-0.11c0.45,0.06,0.27,0.1,0.05,0.01
			c-0.2-0.09-0.39-0.19-0.59-0.29c-0.36-0.19,0.09,0.1,0.18,0.12c-0.08-0.02-0.21-0.14-0.28-0.19c-0.15-0.11-0.3-0.23-0.45-0.35
			c-0.36-0.29,0.49,0.46,0.15,0.13c-0.07-0.07-0.15-0.14-0.22-0.21c-0.35-0.34-0.68-0.71-1.01-1.07c-1.73-1.94-3.67-3.83-6.24-4.55
			c-0.4-0.11-0.95-0.1-1.27,0.21c-0.32,0.31-0.36,0.86-0.25,1.27C75.71,168.04,76.72,169.1,77.87,169.43L77.87,169.43z"/>
	</g>
</g>
<g>
	<g>
		<path d="M88.63,176.2c6.24,0,12.49,0.19,18.73,0.36c5.97,0.17,12.03,0.55,18,0.19c2.25-0.13,5.04-0.24,7.03-1.45
			c1.53-0.93,2.6-2.95,3.2-4.58c0.78-2.13-0.22-4.08-1.4-5.84c-1.45-2.17-2.51-4.43-2.89-7.05c-0.41-2.87,0.49-5.74,1.58-8.36
			c1.1-2.65,2.43-5.22,3.78-7.76c1.4-2.63,2.85-5.22,4.25-7.84c0.47-0.88,1.12-1.8,1.42-2.76c0.29-0.95,0.06-1.92-0.24-2.83
			c-0.84-2.6-2.29-4.97-3.17-7.55c-0.82-2.4-1.28-5.06-1.79-7.55c-0.53-2.62-0.42-5.21-1.67-7.65c-0.6-1.18-1.38-2.25-2.16-3.31
			c-0.67-0.92-1.31-1.75-1.5-2.91c-0.23-1.46-0.36-2.71-1.01-4.06c-0.59-1.24-1.48-2.35-1.91-3.65c-0.94-2.82-1.76-5.87-2.31-8.8
			c-0.43-2.3-0.82-5.14,0.12-7.36c0.46-1.08,1.19-2.1,1.32-3.3c0.17-1.59-0.73-2.97-1.62-4.21c-0.3-0.41-1.59-1.93-2.22-1.43
			c-0.65,0.51,0.62,2.15,0.87,2.5c-0.83-1.16-0.22-0.69-0.4-0.21c-0.07,0.2-0.09,0.43-0.15,0.63c-0.15,0.49-0.39,0.95-0.62,1.41
			c-0.46,0.92-0.86,1.79-0.98,2.82c-0.25,2.17-0.07,4.48,0.38,6.62c0.53,2.52,1.26,5.03,1.94,7.52c0.34,1.24,0.69,2.45,1.28,3.6
			c0.54,1.07,1.4,2.09,1.72,3.26c0.31,1.14,0.22,2.32,0.61,3.45c0.44,1.27,1.16,2.45,1.92,3.54c0.62,0.9,1.36,1.75,1.9,2.7
			c0.59,1.05,0.66,2.32,0.79,3.5c0.27,2.52,0.91,4.97,1.43,7.45c0.55,2.64,1.54,4.93,2.61,7.38c0.77,1.76,2.13,3.77,1.18,5.65
			c-1.22,2.41-2.57,4.76-3.86,7.14c-1.37,2.51-2.72,5.04-3.95,7.62c-1.16,2.44-2.31,4.95-2.79,7.63c-0.47,2.63-0.07,5.11,0.71,7.64
			c0.39,1.26,0.87,2.5,1.49,3.66c0.58,1.11,1.41,2.06,1.99,3.15c0.81,1.5-0.62,3.67-1.53,4.89c-1.26,1.68-3.1,2.06-5.09,2.35
			c-3.17,0.46-6.37,0.38-9.56,0.34c-3.28-0.04-6.57-0.12-9.85-0.2c-6.73-0.18-13.47-0.4-20.2-0.4c-0.93,0,0.07,1.75,0.25,2.03
			C86.7,174.85,87.67,176.2,88.63,176.2L88.63,176.2z"/>
	</g>
</g>
<g>
	<g>
		<path d="M116.74,72.31c1.31,0.24,2.63,0.41,3.94,0.66c0.65,0.13,1.3,0.28,1.94,0.46c0.19,0.06,0.16,0.05-0.1-0.03
			c0.08,0.03,0.16,0.05,0.24,0.08c0.16,0.05,0.31,0.11,0.46,0.18c0.3,0.12,0.59,0.26,0.87,0.41c0.34,0.18,0.9,0.24,1.22,0
			c0.34-0.25,0.41-0.79,0.35-1.17c-0.19-1.22-1.05-2.26-2.12-2.83c-2.53-1.36-5.49-1.53-8.26-2.04c-1.12-0.21-1.27,1.07-0.98,1.86
			C114.68,70.91,115.58,72.09,116.74,72.31L116.74,72.31z"/>
	</g>
</g>
<g>
	<g>
		<path d="M117.05,82.21c0.8,1.28,2.4,1.81,3.78,2.19c0.66,0.18,1.34,0.32,2,0.49c0.32,0.08,0.63,0.16,0.94,0.25
			c0.31,0.09-0.41-0.14-0.11-0.04c0.07,0.03,0.15,0.05,0.22,0.08c0.14,0.05,0.28,0.11,0.41,0.17c0.46,0.21,1.06,0.23,1.55,0.21
			c0.61-0.03,1.32-0.16,1.88-0.41c0.34-0.15,0.92-0.38,1.04-0.77c0.1-0.34-0.05-0.57-0.37-0.72c-1.04-0.48-2.19-0.71-3.31-0.97
			c-0.26-0.06-0.53-0.13-0.79-0.19c-0.13-0.03-0.26-0.07-0.39-0.11c-0.07-0.02-0.14-0.04-0.21-0.06c-0.22-0.07,0.13,0.04,0.17,0.05
			c-0.49-0.22-0.98-0.37-1.44-0.67c0.1,0.06,0.19,0.13,0.29,0.19c-0.4-0.27-0.73-0.59-0.99-1c-0.19-0.3-0.96-0.38-1.23-0.4
			c-0.61-0.05-1.33,0.04-1.92,0.22C118,80.89,116.53,81.38,117.05,82.21L117.05,82.21z"/>
	</g>
</g>
<g>
	<g>
		<path d="M125.86,96.28c0.16,0.08,0.32,0.17,0.48,0.27c0.04,0.02,0.07,0.05,0.11,0.07c-0.02-0.01-0.37-0.25-0.17-0.12
			c0.08,0.06,0.16,0.12,0.25,0.17c0.35,0.26,0.7,0.51,1.06,0.76c0.41,0.28,0.83,0.53,1.3,0.7c0.38,0.14,0.75,0.18,1.15,0.15
			c0.16-0.01-0.42-0.81-0.34-0.7c-0.35-0.47-0.77-0.91-1.18-1.32c-0.42-0.41-0.85-0.83-1.33-1.17c-0.21-0.15-0.44-0.35-0.7-0.33
			c-0.02,0-0.04,0-0.05,0c0.04,0,0.09,0,0.13-0.01c-0.42,0.02-0.82-0.08-1.2-0.26c0.08,0.04,0.16,0.08,0.24,0.11
			c-0.11-0.05-0.22-0.11-0.33-0.17c-0.13-0.08-0.53-0.36-0.04-0.01c-0.21-0.15-0.42-0.3-0.63-0.45c-0.49-0.36-0.99-0.74-1.55-1
			c-0.09-0.09-0.19-0.13-0.31-0.11c-0.09-0.02-0.11,0.03-0.07,0.14c0.06,0.15,0.13,0.28,0.23,0.4c0.13,0.2,0.27,0.38,0.43,0.56
			c0.42,0.49,0.87,0.95,1.34,1.38c0.15,0.13,0.3,0.26,0.45,0.39C125.35,95.94,125.6,96.12,125.86,96.28L125.86,96.28z"/>
	</g>
</g>
<g>
	<g>
		<path d="M130.27,108.09c0.6,0.26,1.24,0.42,1.88,0.53c0.48,0.09,0.96,0.16,1.43,0.3c-0.17-0.05-0.34-0.11-0.51-0.16
			c0.13,0.04,0.25,0.09,0.37,0.14c-0.18-0.09-0.37-0.17-0.55-0.26c0.09,0.04,0.17,0.09,0.26,0.14c-0.19-0.12-0.38-0.23-0.57-0.35
			c0.05,0.03,0.11,0.07,0.16,0.11c0.44,0.33,1.07,0.65,1.62,0.76c0.24,0.05,0.84,0.14,1.01-0.17c0.18-0.33-0.01-0.72-0.2-1
			c-0.34-0.5-0.8-0.89-1.29-1.25c-0.88-0.66-1.95-1.08-3.02-1.3c-0.6-0.12-1.2-0.19-1.78-0.37c0.17,0.05,0.34,0.11,0.51,0.16
			c-0.14-0.04-0.27-0.09-0.4-0.15c-0.23-0.11-0.47-0.17-0.72-0.18c-0.19-0.04-0.38-0.03-0.56,0.03c-0.32,0.15-0.35,0.48-0.23,0.78
			c0.19,0.48,0.58,0.9,0.97,1.23C129.13,107.5,129.67,107.83,130.27,108.09L130.27,108.09z"/>
	</g>
</g>
<g>
	<g>
		<path d="M130.1,114.99c0.02,1.12,0.51,2.22,1.1,3.15c0.6,0.95,1.35,1.76,2.3,2.36c0.88,0.56,1.99,0.81,3.02,0.92
			c0.49,0.05,0.99,0.07,1.49,0.05c0.92-0.03,0.16-1.67-0.04-2.05c-0.3-0.56-0.65-1.13-1.11-1.58c-0.26-0.25-0.66-0.7-1.05-0.69
			c-1.05,0.03-2.13-0.06-3.14-0.38c0.1,0.03,0.21,0.07,0.31,0.1c-0.25-0.08-0.5-0.18-0.73-0.3c-0.16-0.08-0.54-0.36-0.01,0.02
			c-0.1-0.07-0.19-0.15-0.29-0.22c0.55,0.42,0.37,0.34,0.24,0.21c-0.28-0.28,0.42,0.51,0.23,0.27c-0.2-0.26,0.45,0.65,0.27,0.38
			c-0.12-0.2-0.04-0.06,0.25,0.45c-0.1-0.19-0.04-0.06,0.18,0.41c-0.02-0.05-0.04-0.1-0.06-0.14c0.13,0.42,0.16,0.53,0.11,0.35
			c-0.01-0.03-0.02-0.07-0.02-0.1c-0.06-0.23,0.05,0.46,0.03,0.2c-0.01-0.08-0.01-0.15-0.01-0.23c-0.01-0.49-0.25-1.05-0.47-1.47
			c-0.28-0.55-0.67-1.14-1.11-1.58c-0.13-0.12-0.26-0.24-0.39-0.35c-0.19-0.17-0.42-0.28-0.67-0.34
			C130.19,114.44,130.09,114.66,130.1,114.99L130.1,114.99z"/>
	</g>
</g>
<g>
	<g>
		<path d="M124.86,144.11c0.42,0.14,0.85,0.21,1.28,0.25c0.33,0.03,0.67,0.05,1,0.12c-0.1-0.02-0.21-0.05-0.31-0.07
			c0.28,0.07,0.54,0.18,0.77,0.34c0.17,0.07,0.34,0.09,0.52,0.07c0.25,0.01,0.49-0.03,0.73-0.09c0.31-0.07,0.6-0.16,0.89-0.29
			c0.31-0.11,0.62-0.25,0.91-0.41c0.17-0.1,0.34-0.21,0.51-0.31c0.27-0.17,0.5-0.38,0.71-0.62c0.05-0.09,0.1-0.18,0.15-0.28
			c0.05-0.18,0-0.31-0.17-0.39c-0.44-0.3-0.99-0.43-1.52-0.49c-0.44-0.05-0.87-0.05-1.3-0.15c0.1,0.02,0.21,0.05,0.31,0.07
			c-0.08-0.02-0.15-0.04-0.23-0.07c-0.41-0.13-0.84-0.07-1.24,0.02c-0.31,0.07-0.6,0.16-0.89,0.29c-0.31,0.11-0.62,0.25-0.91,0.41
			c-0.17,0.1-0.34,0.21-0.51,0.31c-0.27,0.17-0.5,0.38-0.71,0.62C124.73,143.62,124.52,144,124.86,144.11L124.86,144.11z"/>
	</g>
</g>
<g>
	<g>
		<path d="M116.77,151.85c0.74,1.49,1.91,2.51,3.4,3.23c0.89,0.43,1.86,0.68,2.81,0.92c0.46,0.11,0.92,0.22,1.37,0.33
			c0.2,0.05,0.41,0.1,0.61,0.16c0.16,0.04,0.66,0.22-0.03-0.01c0.1,0.03,0.2,0.06,0.29,0.09c0.22,0.07,0.44,0.15,0.65,0.24
			c0.09,0.04,0.18,0.08,0.27,0.12c0.37,0.16-0.55-0.3-0.21-0.11c0.09,0.05,0.19,0.1,0.28,0.16c0.21,0.13,0.42,0.4-0.21-0.16
			c0.07,0.06,0.14,0.11,0.2,0.17c0.3,0.25-0.54-0.57-0.17-0.15c0.41,0.47,0.99,0.9,1.57,1.13c0.36,0.14,1.02,0.32,1.41,0.1
			c0.98-0.55,0.27-1.82-0.26-2.42c-1.63-1.85-3.92-2.6-6.24-3.16c-0.42-0.1-0.84-0.2-1.26-0.31c-0.21-0.05-0.42-0.11-0.63-0.17
			c-0.17-0.04,0.57,0.18,0.11,0.03c-0.09-0.03-0.18-0.06-0.27-0.09c-0.17-0.06-0.33-0.13-0.5-0.2c-0.45-0.2,0.37,0.21,0.21,0.11
			c-0.08-0.05-0.16-0.1-0.24-0.15c-0.32-0.18,0.58,0.44,0.29,0.2c-0.21-0.17-0.19-0.31,0.26,0.26c-0.04-0.05-0.09-0.12-0.15-0.17
			c0.29,0.4,0.37,0.5,0.24,0.31c-0.11-0.18-0.06-0.08,0.15,0.3c-0.52-1.03-1.51-2.09-2.72-2.26c-0.39-0.05-0.93-0.09-1.19,0.28
			C116.59,150.98,116.58,151.47,116.77,151.85L116.77,151.85z"/>
	</g>
</g>
<g>
	<g>
		<path d="M122.46,161.18c1.03,1.63,2.98,2.41,4.77,2.9c1.71,0.47,3.44,0.72,5.18,1.03c0.61,0.11,1.33,0.09,1.93-0.09
			c0.37-0.11,1-0.37,1.17-0.78c0.43-1.03-0.95-1.56-1.71-1.69c-0.66-0.12-1.32-0.22-1.98-0.33c-0.37-0.06-0.74-0.13-1.11-0.21
			c-0.21-0.04-0.41-0.09-0.62-0.13c-0.09-0.02-0.17-0.04-0.26-0.06c-0.47-0.11,0.43,0.11,0.18,0.05c-0.37-0.1-0.74-0.2-1.1-0.33
			c-0.18-0.06-0.35-0.12-0.52-0.19c-0.06-0.02-0.12-0.05-0.18-0.08c0.11,0.05,0.22,0.1,0.32,0.14c-0.06,0-0.2-0.09-0.26-0.12
			c-0.15-0.08-0.3-0.16-0.44-0.24c-0.08-0.05-0.15-0.1-0.22-0.14c-0.19-0.11,0.37,0.29,0.14,0.1c-0.13-0.11-0.25-0.21-0.36-0.33
			c-0.05-0.05-0.1-0.15-0.15-0.18c0.09,0.05,0.23,0.33,0.07,0.07c-0.6-0.94-2.03-1.17-3.05-1.01c-0.51,0.08-1.13,0.2-1.51,0.58
			C122.48,160.41,122.22,160.81,122.46,161.18L122.46,161.18z"/>
	</g>
</g>
<g>
	<g>
		<path d="M102.32,172.59c0.44,0.45,1,0.78,1.57,1.04c0.51,0.24,1.04,0.46,1.51,0.78c-0.07-0.05-0.13-0.09-0.2-0.14
			c0.09,0.07,0.19,0.14,0.28,0.21c0.1,0.11,0.22,0.17,0.36,0.15c0.2,0.03,0.39,0.01,0.58-0.06c0.55-0.14,1.15-0.45,1.61-0.77
			c0.48-0.33,1-0.7,1.34-1.18c0.08-0.12,0.16-0.24,0.23-0.36c0.11-0.17,0.13-0.36,0.05-0.54c-0.45-0.38-0.97-0.66-1.5-0.91
			c-0.47-0.22-0.94-0.42-1.37-0.71c0.07,0.05,0.13,0.09,0.2,0.14c-0.18-0.12-0.34-0.26-0.49-0.42c-0.24-0.25-0.64-0.17-0.94-0.09
			c-0.55,0.14-1.15,0.45-1.61,0.77c-0.48,0.33-1,0.7-1.34,1.18c-0.08,0.12-0.16,0.24-0.23,0.36
			C102.26,172.22,102.24,172.4,102.32,172.59L102.32,172.59z"/>
	</g>
</g>
</svg>
