<?xml version="1.0" encoding="utf-8"?>
<!-- Generator: Adobe Illustrator 26.3.1, SVG Export Plug-In . SVG Version: 6.00 Build 0)  -->
<svg version="1.1" id="Layer_1" xmlns="http://www.w3.org/2000/svg" xmlns:xlink="http://www.w3.org/1999/xlink" x="0px" y="0px"
	 viewBox="0 0 200 200" style="enable-background:new 0 0 200 200;" xml:space="preserve">
<g>
	<g>
		<path d="M44.11,103.43c4.03-0.83,7.59-2.88,11.25-4.66C59,97,62.01,94.34,65.41,92.18c2.83-1.8,5.56-3.96,8.79-5.02
			c1.25-0.41,2.56-0.63,3.72,0.03c1.69,0.96,3.29,2.09,4.85,3.25c3.46,2.56,6.81,5.28,10.57,7.41c3.85,2.19,8.03,3.71,12.19,5.2
			c4,1.43,8.06,2.84,11.74,4.99c3.86,2.24,7.4,4.98,11.06,7.52c3.68,2.56,7.41,4.82,11.64,6.33c1.77,0.63,3.59,1.17,5.34,1.84
			c0.05,0.02,0.44,0.12,0.12,0.04c0.13,0.03,0.25,0.22,0.09,0.04c-0.24-0.27-1.02-0.66-0.92-0.85c-0.08,0.16,0.01,0.57-0.03,0.78
			c-0.08,0.49-0.28,0.95-0.48,1.4c-1.63,3.7-4.24,6.93-7.12,9.74c-1.43,1.39-2.89,2.62-4.67,3.54c-1.43,0.74-2.94,1.35-4.24,2.32
			c-1.27,0.95-2.26,2.11-2.92,3.55c-0.26,0.57-0.51,1.16-0.84,1.7c-0.06,0.1-0.27,0.42-0.26,0.41c0.14-0.13,0.03-0.04,0.03-0.04
			c-1.14-0.28-2.24-1-3.36-1.53c-1.58-0.74-3.25-1.31-4.86-1.98c-3.53-1.46-6.81-3.13-9.82-5.49c-3.47-2.72-7.32-4.87-11.01-7.26
			c-3.81-2.48-7.26-5.51-11.12-7.9c-1.86-1.15-3.86-2.03-5.77-3.08c-1.84-1.01-3.5-2.32-5.3-3.39c-3.7-2.18-7.63-3.99-11.25-6.32
			c-3.36-2.16-6.22-4.99-9.7-6.97c-1.8-1.03-3.68-1.8-5.7-2.23c-0.99-0.21-1.3,0.51-0.83,1.28c0.61,0.98,1.87,1.68,2.97,1.92
			c3.67,0.79,6.5,3.79,9.41,5.95c3.7,2.74,7.81,4.81,11.84,7.01c1.92,1.04,3.76,2.18,5.56,3.42c1.92,1.32,4.01,2.32,6.08,3.39
			c4.08,2.11,7.57,5.31,11.36,7.88c3.69,2.51,7.7,4.57,11.21,7.33c3.44,2.7,7.08,4.81,11.1,6.53c1.75,0.75,4.02,1.59,5.5,2.23
			c1.28,0.56,2.49,1.24,3.79,1.77c1.04,0.42,2.79,1.19,3.82,0.42c0.91-0.67,1.2-2.18,1.73-3.13c1.89-3.36,5.91-4,8.77-6.22
			c3.26-2.52,6.21-5.84,8.34-9.36c0.88-1.46,2.08-3.34,2.14-5.11c0.05-1.56-1.18-2.77-2.39-3.57c-1.39-0.92-3.02-1.36-4.57-1.9
			c-2.1-0.73-4.25-1.37-6.25-2.35c-4.02-1.97-7.61-4.91-11.25-7.48c-3.88-2.74-7.88-5.25-12.26-7.11
			c-4.21-1.79-8.57-3.16-12.82-4.84c-4-1.59-7.56-3.71-11-6.28c-3.53-2.64-7.02-5.57-11-7.53c-3.38-1.67-6.81-0.77-9.97,0.95
			c-1.59,0.87-3.09,1.9-4.6,2.9c-1.58,1.05-3.2,2.02-4.72,3.16c-1.75,1.32-3.46,2.71-5.44,3.68c-1.93,0.95-3.84,1.93-5.78,2.85
			c-1.87,0.89-3.8,1.75-5.83,2.17C39.08,100.59,42.73,103.72,44.11,103.43L44.11,103.43z"/>
	</g>
</g>
<g>
	<g>
		<path d="M44.54,100.78c-1.55,3.11-1.2,6.7-1.14,10.05c0.03,1.86,0.16,3.52,1.61,4.86c1.34,1.24,3.19,1.68,4.88,2.21
			c3.03,0.95,5.8,4.02,8.52,5.91c3.54,2.46,7.4,4.25,11.17,6.31c3.42,1.86,6.26,4.56,9.6,6.51c3.28,1.92,6.99,2.76,10.4,4.39
			c3.75,1.78,7.29,4.05,10.98,5.97c3.65,1.9,7.39,3.5,11.18,5.09c2.09,0.88,4.2,1.78,6.42,2.3c1.07,0.25,2.15,0.31,3.23,0.49
			c0.91,0.15,1.77,0.52,2.66,0.73c1.83,0.44,3.91,0.47,5.16-1.14c0.99-1.27,1.22-3.01,1.21-4.58c-0.01-2.07-4.76-3.55-4.75-1.21
			c0,1,0.01,2.53-0.73,3.33c-0.69,0.75-2.25-0.24-3.07-0.43c-1.62-0.39-3.26-0.42-4.86-0.91c-1.7-0.51-3.31-1.28-4.94-1.95
			c-6.98-2.86-13.43-6.52-20.06-10.08c-3.02-1.62-6.39-2.41-9.48-3.87c-3.02-1.43-5.54-3.88-8.35-5.68
			c-3.2-2.05-6.71-3.52-9.97-5.46c-3.02-1.79-5.64-4.01-8.46-6.08c-1.63-1.19-3.38-2.24-5.3-2.87c-0.64-0.21-1.32-0.49-1.97-0.62
			c-0.41-0.08-0.33-0.21-0.21-0.03c-0.01-0.02-0.09-0.71-0.1-0.9c-0.18-3.31-0.58-7.23,0.94-10.28
			C50.06,100.9,45.52,98.8,44.54,100.78L44.54,100.78z"/>
	</g>
</g>
<g>
	<g>
		<path d="M145.92,123.28c-0.94,1.88-0.97,3.74-0.27,5.7c0.58,1.63,1.67,2.99,2.34,4.56c0.46,1.07,0.74,2.32,0.02,3.27
			c-0.72,0.95-1.97,1.53-2.96,2.17c-1.55,1.01-2.93,2.25-4.43,3.32c-1.76,1.25-3.6,2.41-5.26,3.8c-1.6,1.33-3.12,2.85-4.47,4.42
			c-1.1,1.28-1.82,2.75-3.62,3.03c-2.43,0.38-0.23,4.84,1.96,4.5c2.01-0.32,3.14-1.57,4.34-3.09c1.27-1.61,2.73-3.11,4.28-4.45
			c1.64-1.41,3.47-2.58,5.24-3.83c1.63-1.15,3.12-2.48,4.79-3.57c1.22-0.8,2.53-1.52,3.47-2.66c0.95-1.16,1.21-2.67,1.08-4.13
			c-0.2-2.09-1.02-3.88-2.05-5.67c-0.69-1.2-1.68-2.51-0.98-3.91c0.55-1.1,0.11-2.39-0.74-3.22
			C148.07,122.94,146.47,122.17,145.92,123.28L145.92,123.28z"/>
	</g>
</g>
<g>
	<g>
		<path d="M66.26,103.3c1-1.66,1.93-3.18,3.7-4.09c1.23-0.63,2.53-1.12,3.76-1.74c1.36-0.69,2.67-1.44,3.96-2.26
			c0.72-0.46-0.65-1.47-1.01-1.72c-0.52-0.37-1.09-0.71-1.69-0.92c-0.3-0.1-0.93-0.38-1.22-0.19c-1.28,0.82-2.6,1.58-3.96,2.26
			c-1.28,0.65-2.63,1.14-3.9,1.82c-0.83,0.44-1.6,0.99-2.22,1.71c-0.67,0.78-1.19,1.69-1.72,2.58c-0.16,0.26,0.21,0.7,0.35,0.85
			c0.37,0.43,0.91,0.82,1.4,1.1c0.51,0.3,1.05,0.58,1.63,0.71C65.59,103.45,66.09,103.58,66.26,103.3L66.26,103.3z"/>
	</g>
</g>
<g>
	<g>
		<path d="M72.78,107.5c0.13-1.96,2.41-3.11,3.97-3.84c1.83-0.86,3.79-1.4,5.63-2.24c-0.96-1.36-1.91-2.73-2.87-4.09
			c-0.96,1.85-2.07,3.59-1.76,5.77c0.13,0.89,0.46,1.76,0.28,2.67c-0.08,0.42-0.31,0.77-0.46,1.17c-0.19,0.5-0.15,0.88-0.05,1.4
			c0.16,0.84,0.93,1.79,1.44,2.44c0.21,0.26,1.02,1.43,1.44,1.23c3.76-1.8,7.15-4.24,10.9-6.05c0.42-0.2-2.02-4.5-2.87-4.09
			c-3.75,1.81-7.14,4.26-10.9,6.05c0.96,1.22,1.92,2.45,2.88,3.67c-0.14-0.75,0.59-1.57,0.66-2.33c0.07-0.81-0.2-1.56-0.32-2.36
			c-0.32-2.07,0.74-3.72,1.65-5.48c0.31-0.6-0.72-1.87-1.04-2.33c-0.22-0.32-1.3-2.01-1.83-1.77c-1.91,0.87-3.94,1.42-5.83,2.33
			c-1.66,0.8-3.74,1.98-3.88,4.04c-0.06,0.88,0.98,2.07,1.49,2.71C71.42,106.58,72.74,108.06,72.78,107.5L72.78,107.5z"/>
	</g>
</g>
<g>
	<g>
		<path d="M89.65,115.59c0.47-3.26,3.8-5.81,6.55-7.18c0.72-0.36,1.36-0.62,2.12-0.8c0.16-0.04,0.32-0.07,0.49-0.1
			c0.07-0.01,0.58-0.07,0.39-0.05c-0.2,0.01,0.21,0.01,0.29,0.01c0.3-0.01-0.03,0-0.09-0.01c0.43,0.12-0.2-0.06,0.07,0.01
			c0.31,0.08-0.75-0.37-0.28-0.09c0.04,0.02-0.35-0.17-0.35-0.22c0,0.02,0.22,0.19,0.26,0.23c-0.18-0.21,0.11,0.2,0.1,0.18
			c0.09,0.18,0.15,0.4,0.15,0.6c0.02,0.85-0.73,1.67-1.46,2.01c-0.8,0.37-1.61,0.3-2.53,0.26c-1.04-0.04-2.08-0.16-3.12-0.17
			c-0.25,0-0.79,0.01-0.92,0.33c-0.12,0.31,0.26,0.7,0.45,0.87c0.82,0.74,2.18,1.29,3.29,1.29c2.24,0.02,4.62,0.56,6.79-0.24
			c1.02-0.37,2.03-1.36,2.15-2.48c0.13-1.2-0.65-2.2-1.54-2.91c-2.25-1.79-5.45-2.66-8.25-1.85c-2.06,0.59-3.96,1.69-5.58,3.07
			c-1.61,1.37-3.32,3.22-3.63,5.4C84.78,115.24,89.5,116.62,89.65,115.59L89.65,115.59z"/>
	</g>
</g>
<g>
	<g>
		<path d="M104.9,113.42c-2.45,2.88-5.67,5.47-7.03,9.11c-0.61,1.63-0.48,3.28,1.2,4.16c1.64,0.86,3.28,0.72,4.99,0.17
			c2.12-0.68,4.04-1.76,5.94-2.9c0.33-0.2,1.06-0.53-0.38,0.12c-1.15,0.52-0.87,0.37-0.36,0.24c0.53-0.14,1.06-0.28,1.58-0.45
			c1.48-0.48,3.03-1.12,4.29-2.05c1.09-0.81,2.06-1.91,2.93-2.95c0.2-0.24-0.31-0.17-0.35-0.17c-0.46,0.04-1.03,0.27-1.44,0.43
			c-0.85,0.33-2.1,0.72-2.72,1.45c-0.7,0.83-1.45,1.64-2.26,2.36c-0.67,0.6,0.84-0.53,1.64-0.68c-0.16,0.03-0.59,0.15-0.85,0.22
			c-1.23,0.33-2.43,0.77-3.59,1.31c-0.84,0.39-1.63,0.87-2.41,1.35c-0.15,0.09-0.31,0.19-0.46,0.28c-0.34,0.21-0.19,0.11-0.11,0.07
			c-0.06,0.03-0.12,0.07-0.19,0.1c-0.21,0.11-0.25,0.13-0.11,0.06c0-0.01,1.07-0.52,1.19-0.47c-0.15-0.07-0.57,0.07-0.76,0.06
			c-0.37-0.01-0.74-0.08-1.1-0.18c-0.56-0.16-1.11-0.41-1.56-0.79c-1.21-1.02-1-2.63-0.42-3.93c0.78-1.76,2.03-3.3,3.28-4.75
			c1.15-1.33,2.42-2.55,3.56-3.89c0.21-0.24-0.31-0.17-0.35-0.17c-0.46,0.04-1.03,0.27-1.44,0.43
			C106.76,112.3,105.52,112.69,104.9,113.42L104.9,113.42z"/>
	</g>
</g>
<g>
	<g>
		<path d="M121.6,121.33c1.85,1.48,3.94,2.53,6.12,3.44c0.93,0.39,1.88,0.76,2.81,1.15c0.47,0.2,0.94,0.4,1.4,0.61
			c0.22,0.1,0.45,0.24,0.68,0.32c-0.12-0.04-0.46-0.24-0.15-0.08c0.14,0.08,0.29,0.15,0.43,0.23c0.53,0.29,1.12,0.55,1.75,0.54
			c0.41-0.01,1-0.16,1.22-0.57c0.53-1-0.43-2.21-1.28-2.68c-1.89-1.04-3.88-1.83-5.88-2.64c-0.9-0.37-1.77-0.84-2.68-1.19
			c0.24,0.09,0.4,0.21,0.07,0.03c-0.1-0.05-0.2-0.11-0.29-0.16c-0.22-0.12-0.43-0.25-0.65-0.38c-0.19-0.12-0.37-0.23-0.55-0.36
			c-0.08-0.05-0.47-0.34-0.13-0.08c0.35,0.27-0.08-0.07-0.12-0.1c-0.51-0.41-1.07-0.76-1.72-0.88c-0.43-0.08-1.11-0.1-1.48,0.2
			C120.27,119.46,120.85,120.74,121.6,121.33L121.6,121.33z"/>
	</g>
</g>
<g>
	<g>
		<path d="M125.63,123.51c-0.73,0.87-1.25,1.95-2.16,2.65c-1.06,0.81-2.37,1.07-3.55,1.65c-2.1,1.03-3.42,3.66-5.91,3.96
			c-1.04,0.13,0.38,0.86,0.66,0.97c0.98,0.4,2.27,0.84,3.35,0.71c1.37-0.17,2.49-0.85,3.53-1.73c0.95-0.8,1.81-1.81,2.94-2.36
			c1.21-0.6,2.55-0.85,3.62-1.7c0.98-0.78,1.55-1.88,2.34-2.83c0.3-0.36-2.07-1.15-2.26-1.2c-0.57-0.15-1.16-0.29-1.75-0.31
			C126.16,123.31,125.82,123.28,125.63,123.51L125.63,123.51z"/>
	</g>
</g>
</svg>
