<?xml version="1.0" encoding="utf-8"?>
<!-- Generator: Adobe Illustrator 26.3.1, SVG Export Plug-In . SVG Version: 6.00 Build 0)  -->
<svg version="1.1" id="Layer_1" xmlns="http://www.w3.org/2000/svg" xmlns:xlink="http://www.w3.org/1999/xlink" x="0px" y="0px"
	 viewBox="0 0 200 200" style="enable-background:new 0 0 200 200;" xml:space="preserve">
<g>
	<g>
		<path d="M66.9,70.59c0.82-2.37,2.07-4.66,3.48-6.74c1.26-1.87,3.2-3.01,5.16-4.03c4.62-2.38,9.34-4.72,14.61-5.18
			c2.64-0.23,5.33-0.12,7.98-0.18c2.88-0.07,5.76-0.13,8.64-0.02c2.69,0.1,5.34,0.4,7.99,0.91c2.29,0.44,4.64,0.71,6.9,1.26
			c0.27,0.07,0.54,0.14,0.8,0.22c1.78,0.57-1.39-1.17-0.88-0.59c0.4,0.46,0.87,0.86,1.27,1.32c0.84,0.96,1.6,1.98,2.43,2.96
			c1.72,2.04,3.8,3.88,2.29,6.68c-0.21,0.39,4.15,2.83,4.31,2.54c1.4-2.6-0.24-4.45-1.94-6.38c-1.54-1.76-2.86-3.74-4.64-5.27
			c-2.12-1.82-4.82-3.31-7.54-4c-2.54-0.64-5.21-0.96-7.79-1.43c-6.14-1.12-12.37-0.83-18.57-0.7c-2.87,0.06-5.69-0.01-8.51,0.6
			c-2.92,0.63-5.73,1.74-8.4,3.07c-2.44,1.21-5.2,2.35-7.19,4.25c-1.08,1.03-1.82,2.35-2.56,3.64c-0.84,1.46-1.59,2.95-2.14,4.54
			C62.37,68.69,66.88,70.66,66.9,70.59L66.9,70.59z"/>
	</g>
</g>
<g>
	<g>
		<path d="M63.09,67.12c-0.12,0.31-0.8,1.79-0.56,1.84c-0.58-0.12-0.78,0.08-0.87,0.64c-1.21,8.01-2.14,16.06-3.01,24.12
			c-0.42,3.89-0.87,7.78-1.23,11.68c-0.38,4.01,0.02,7.84,0.64,11.8c1.2,7.7,2.17,15.36,1.21,23.15
			c-0.95,7.63-3.23,15.02-4.51,22.59c-1.43,8.52-1.72,17.43-1.43,26.05c0.04,1.13,0.87,2.29,1.72,2.98c0.48,0.39,1.74,1,1.71-0.14
			c-0.25-7.74-0.04-15.71,1.02-23.39c1.05-7.62,3.33-15,4.54-22.6c1.21-7.65,0.82-15.22-0.34-22.85c-0.6-3.96-1.46-7.95-1.33-11.98
			c0.13-3.84,0.71-7.68,1.11-11.5c0.96-9.04,1.96-18.09,3.32-27.08c-0.29,0.21-0.58,0.43-0.87,0.64c1.46,0.29,1.79-1.32,2.18-2.41
			C66.93,69.23,63.6,65.74,63.09,67.12L63.09,67.12z"/>
	</g>
</g>
<g>
	<g>
		<path d="M127.5,66.27c-0.24,1.75-0.21,3.33,0.28,5.04c0.6,2.09,0.99,4.19,1.28,6.35c0.57,4.26,1.15,8.47,1.31,12.77
			c0.16,4.31,0.15,8.62,0.6,12.92c0.44,4.19,1.26,8.35,1.79,12.53c1.08,8.55,1.72,17.15,1.89,25.76c0.17,8.48-0.41,16.87-0.8,25.33
			c-0.4,8.52-0.05,17.5-3.7,25.43c-0.66,1.42,3.38,4.18,3.83,3.21c3.22-6.99,3.5-14.7,3.75-22.26c0.29-8.38,1.02-16.71,0.99-25.11
			c-0.03-8.62-0.53-17.23-1.47-25.79c-0.47-4.3-1.06-8.59-1.75-12.86c-0.7-4.32-0.87-8.67-0.99-13.04
			c-0.13-4.8-0.52-9.49-1.16-14.25c-0.31-2.3-0.56-4.62-1.07-6.89c-0.25-1.1-0.68-2.18-0.86-3.3c-0.17-1.04-0.02-2.1,0.12-3.13
			C131.72,67.57,127.68,64.96,127.5,66.27L127.5,66.27z"/>
	</g>
</g>
<g>
	<g>
		<path d="M67.45,75.64c0.79,1.47,2.22,2.41,3.5,3.42c1.4,1.11,2.68,2.15,4.38,2.78c3.7,1.37,8.07,1.39,11.97,1.57
			c4.46,0.21,8.93,0.24,13.36-0.33c4.39-0.56,8.23-2.25,12.36-3.69c2.09-0.73,4.18-1.52,6-2.82c0.82-0.58,1.53-1.24,2.18-2
			c0.26-0.31,0.53-0.63,0.78-0.94c0.08-0.1,0.18-0.2,0.28-0.28c0.21-0.18-0.75,0.21,0.21-0.07c0.6-0.18,2.31-0.98,1.99-1.85
			c-0.32-0.91-2.17-0.34-2.72-0.18c-1.74,0.51-3.11,1.51-4.27,2.88c-0.94,1.11-1.85,1.92-3.2,2.52c-1.52,0.67-3.15,1.14-4.7,1.74
			c-1.73,0.67-3.46,1.41-5.28,1.8c-3.88,0.84-8.04,0.86-11.99,0.71c-3.78-0.15-7.65-0.24-11.37-0.99c-1.88-0.38-3.44-1.14-4.9-2.38
			c-1.28-1.09-3.07-2.05-3.89-3.56C71.39,72.53,66.8,74.43,67.45,75.64L67.45,75.64z"/>
	</g>
</g>
<g>
	<g>
		<path d="M56.62,112.32c1.21,4.1,5.57,6.41,9.28,7.85c4.73,1.83,9.76,2.7,14.8,3.12c6.38,0.53,12.91,0.35,19.27-0.37
			c3.07-0.35,6.07-0.92,9.08-1.58c2.78-0.61,5.56-0.78,8.37-1.21c3.37-0.52,5.99-2.27,8.85-4c1.35-0.82,2.86-1.23,4.23-2.02
			c0.63-0.36,1.16-0.82,1.66-1.35c0.33-0.35,0.63-0.85,1.07-1.01c1.05-0.38,1.7-1.58,1.03-2.58c-0.71-1.06-2.26-1.27-3.38-0.87
			c-1.13,0.4-1.92,1.17-2.71,2.04c-0.75,0.83-1.69,1.09-2.7,1.51c-2.51,1.04-4.56,2.97-7.09,3.96c-2.29,0.9-4.88,0.74-7.28,1.12
			c-2.84,0.45-5.62,1.23-8.46,1.69c-5.69,0.92-11.48,1.21-17.24,1.06c-4.99-0.13-10.02-0.64-14.82-2.06
			c-3.17-0.94-8.05-2.53-9.1-6.08C60.79,109.2,55.85,109.71,56.62,112.32L56.62,112.32z"/>
	</g>
</g>
<g>
	<g>
		<path d="M57.41,151c0.77,4.07,6.17,5.47,9.6,6.3c5.61,1.35,11.43,1.76,17.18,2.05c3.41,0.18,6.83,0.21,10.23,0.55
			c1.49,0.15,2.99,0.33,4.5,0.28c1.75-0.06,3.49-0.45,5.2-0.74c3.1-0.53,6.4-0.34,9.36-1.43c1.16-0.43,2.22-0.92,3.46-1.09
			c1.42-0.19,2.86-0.23,4.27-0.46c1.64-0.26,3.23-0.82,4.5-1.91c0.58-0.5,1.01-1.2,1.6-1.67c-0.37,0.3,0.26-0.09,0.32-0.11
			c0.36-0.15,0.74-0.25,1.11-0.37c2.96-0.93,6.17-2.15,8.38-4.4c0.64-0.65,0.88-1.75-0.16-2.08c-1.1-0.35-2.49,0.55-3.21,1.28
			c-1.16,1.18-3.88,1.81-5.55,2.36c-1.48,0.48-2.88,1.2-4.01,2.29c-0.36,0.35-0.75,0.72-1.04,1.13c-0.21,0.3-0.24,0.05,0.11-0.03
			c-0.23,0.05-0.46,0.11-0.69,0.15c-2.55,0.48-5.07,0.38-7.54,1.28c-1.09,0.4-2.07,0.91-3.24,1c-1.56,0.12-3.11,0.22-4.67,0.44
			c-2.97,0.43-5.76,1.09-8.78,0.83c-3.06-0.27-6.12-0.45-9.19-0.59c-5.8-0.26-11.61-0.57-17.31-1.71c-2.01-0.4-4.06-0.89-5.95-1.69
			c-1.47-0.62-3.58-1.65-3.91-3.4C61.56,147.15,57.08,149.25,57.41,151L57.41,151z"/>
	</g>
</g>
<g>
	<g>
		<path d="M125.37,114.59c-1.01,2.04-0.2,4.73,0.34,6.79c0.7,2.67,1.26,5.35,1.54,8.1c0.33,3.26,0.35,6.55,0.6,9.82
			c0.06,0.81,0.22,1.68,0.16,2.5c-0.04,0.56-0.29,1.05-0.44,1.59c-0.43,1.46-0.25,2.95-0.38,4.45c-0.1,1.12,0.6,2.37,1.34,3.17
			c0.4,0.44,1.54,1.25,1.64,0.12c0.12-1.41-0.08-2.86,0.35-4.23c0.42-1.33,0.5-2.38,0.4-3.79c-0.25-3.27-0.39-6.55-0.59-9.83
			c-0.17-2.91-0.66-5.9-1.38-8.72c-0.44-1.71-1.62-4.28-0.77-6.01C128.83,117.22,125.97,113.38,125.37,114.59L125.37,114.59z"/>
	</g>
</g>
<g>
	<g>
		<path d="M115.53,119.07c-1.18,3-0.1,6.11,0.72,9.06c0.87,3.14,1.26,6.35,0.3,9.53c-0.46,1.53-1.19,2.94-1.84,4.4
			c-0.63,1.42-0.85,2.94-0.8,4.49c0.1,3.3,1.16,6.55,0.3,9.83c-0.13,0.49,2.38,0.07,2.57,0.03c0.64-0.15,2.1-0.4,2.29-1.17
			c0.84-3.22-0.16-6.4-0.3-9.63c-0.07-1.66,0.16-3.21,0.88-4.72c0.67-1.42,1.32-2.85,1.76-4.37c0.83-2.92,0.67-5.85-0.1-8.77
			c-0.78-2.99-2.23-6.4-1.03-9.46c0.27-0.7-1.6-0.38-1.87-0.34C117.81,118.06,115.82,118.33,115.53,119.07L115.53,119.07z"/>
	</g>
</g>
<g>
	<g>
		<path d="M103.91,120c-0.58,1.65-1.34,3.24-1.23,5.03c0.11,1.72,0.89,3.33,1.6,4.87c1.28,2.77,2.29,5.99,2.33,9.06
			c0.04,3.18-1.91,5.47-2.83,8.37c-0.92,2.88,0.49,6.24-0.92,8.96c-1.07,2.06,3.31,4.47,4.37,2.43c1.54-2.96,0.2-6.09,1-9.14
			c0.35-1.32,1.11-2.51,1.7-3.72c0.69-1.43,1.22-2.95,1.32-4.54c0.2-3.19-0.65-6.41-1.69-9.4c-0.55-1.6-1.47-3.06-1.97-4.68
			c-0.55-1.76,0.11-3.15,0.69-4.8c0.4-1.14-0.36-2.17-1.35-2.72C106.23,119.32,104.31,118.87,103.91,120L103.91,120z"/>
	</g>
</g>
<g>
	<g>
		<path d="M93.96,120.55c-0.81,2.44-2.53,4.59-2.76,7.21c-0.25,2.92,1.24,5.74,1.44,8.63c0.21,3.06-0.49,6.15,0.59,9.11
			c0.87,2.39,3.51,4.8,2.41,7.53c-0.22,0.54,1,1.79,1.3,2.16c0.11,0.14,1.8,1.88,1.87,1.7c0.99-2.47-0.78-4.94-1.96-7
			c-1.56-2.74-0.95-6.03-0.98-9.03c-0.02-3-1.44-5.76-1.5-8.74c-0.06-2.82,1.89-5.14,2.75-7.72c0.19-0.58-0.98-1.76-1.3-2.16
			C95.71,122.11,94.01,120.39,93.96,120.55L93.96,120.55z"/>
	</g>
</g>
<g>
	<g>
		<path d="M82.18,120.25c-0.35,1.28-0.84,2.52-0.83,3.86c0.01,1.63,0.43,3.25,0.79,4.83c0.75,3.29,0.82,6.67,1.05,10.03
			c0.21,3.11,0.41,6.23-0.17,9.31c-0.54,2.89-1.79,5.58-3.37,8.03c-0.73,1.13,1.99,5.11,2.68,4.03c1.58-2.45,2.75-5.07,3.36-7.93
			c0.64-2.97,0.58-5.93,0.4-8.95c-0.2-3.42-0.2-7.01-0.82-10.38c-0.29-1.59-0.75-3.14-0.99-4.74c-0.22-1.5,0.19-2.66,0.58-4.09
			c0.27-1.01-0.34-2.19-0.89-3.01C83.83,121.06,82.43,119.35,82.18,120.25L82.18,120.25z"/>
	</g>
</g>
<g>
	<g>
		<path d="M70.7,123.31c-0.78,5.14,0.26,10.37-0.56,15.5c-0.35,2.21-1.42,4.11-1.98,6.25c-0.6,2.28-0.18,5.01,0.28,7.3
			c0.32,1.62,5.27,1.78,4.86-0.25c-0.43-2.18-0.73-4.79-0.06-6.95c0.67-2.16,1.63-4.08,1.94-6.36c0.69-4.99-0.27-10.05,0.49-15.03
			C75.94,122.03,70.98,121.48,70.7,123.31L70.7,123.31z"/>
	</g>
</g>
<g>
	<g>
		<path d="M82.08,159.32c-0.98,2.38-1.48,4.76-1.61,7.33c-0.06,1.26-0.09,2.5-0.49,3.71c-0.39,1.2-1.02,2.31-1.47,3.48
			c-0.91,2.37-0.62,4.73-0.03,7.14c0.48,1.95,1.37,4.18,0.64,6.19c-0.44,1.21,0.03,2.49,1.12,3.2c0.85,0.55,2.58,0.71,3.02-0.51
			c0.89-2.44,0.7-4.75,0.1-7.23c-0.48-1.97-1.38-4.16-0.69-6.18c0.82-2.4,2.09-4.44,2.24-7.04c0.14-2.57,0.31-4.98,1.3-7.39
			c0.49-1.19-0.06-2.51-1.12-3.2C84.22,158.24,82.57,158.13,82.08,159.32L82.08,159.32z"/>
	</g>
</g>
<g>
	<g>
		<path d="M110.43,158.74c-1.83,4.39-1.91,9.14-2.45,13.8c-0.57,4.89-0.99,9.8-1,14.72c0,0.98,1.33,1.92,2.07,2.36
			c0.32,0.19,2.07,1.1,2.07,0.16c0.01-4.77,0.4-9.53,0.94-14.27c0.53-4.6,0.55-9.41,2.36-13.75
			C115,160.36,110.82,157.8,110.43,158.74L110.43,158.74z"/>
	</g>
</g>
<g>
	<g>
		<path d="M124.94,69.98c2.11,0-0.79-3.86-2.25-3.86C120.58,66.12,123.48,69.98,124.94,69.98L124.94,69.98z"/>
	</g>
</g>
<g>
	<g>
		<path d="M118.56,72.8c3.08,0,2.78-4.85-0.03-4.85C115.45,67.94,115.75,72.8,118.56,72.8L118.56,72.8z"/>
	</g>
</g>
<g>
	<g>
		<path d="M123.07,64.83c1.09,0,1.58-0.87,1.13-1.83c-0.49-1.05-1.86-1.86-3.01-1.86c-1.09,0-1.58,0.87-1.13,1.83
			C120.55,64.02,121.92,64.83,123.07,64.83L123.07,64.83z"/>
	</g>
</g>
<g>
	<g>
		<path d="M124.25,76c0.46,0,2.5-0.04,2.49-0.8c-0.01-0.76-2.14-0.76-2.51-0.76c-0.46,0-2.5,0.04-2.49,0.8
			C121.75,76.01,123.88,76,124.25,76L124.25,76z"/>
	</g>
</g>
<g>
	<g>
		<path d="M122.13,80.02c0.27,0,2.5,0.08,2.5-0.34c0-0.4-2.37-0.4-2.5-0.4c-0.27,0-2.5-0.08-2.5,0.34
			C119.63,80.02,122,80.02,122.13,80.02L122.13,80.02z"/>
	</g>
</g>
<g>
	<g>
		<path d="M122.67,84.38c-0.3,0.55-0.58,1.12-0.84,1.69c-0.09,0.2-0.09,0.39-0.01,0.57c0.02,0.19,0.12,0.33,0.3,0.43
			c0.19,0.11,0.39,0.17,0.61,0.16c0.26,0.03,0.52,0.01,0.78-0.06c0.19-0.06,0.39-0.12,0.58-0.19c0.41-0.17,0.8-0.39,1.15-0.67
			c0.15-0.14,0.3-0.28,0.45-0.41c0.24-0.25,0.42-0.53,0.54-0.86c0.06-0.13,0.12-0.27,0.18-0.4c-0.07,0.14-0.14,0.28-0.2,0.43
			c0.14-0.29,0.29-0.58,0.45-0.87c0.14-0.19,0.22-0.4,0.23-0.62c0.06-0.19,0.03-0.37-0.07-0.54c-0.1-0.18-0.25-0.28-0.44-0.33
			c-0.21-0.1-0.42-0.13-0.66-0.1c-0.18,0.03-0.36,0.05-0.54,0.08c-0.42,0.1-0.81,0.26-1.18,0.48c-0.18,0.12-0.37,0.25-0.55,0.37
			C123.14,83.78,122.88,84.06,122.67,84.38L122.67,84.38z"/>
	</g>
</g>
<g>
	<g>
		<path d="M126.65,92.5c2.97,0,3.49-4.59,0.25-4.59C123.93,87.91,123.41,92.5,126.65,92.5L126.65,92.5z"/>
	</g>
</g>
</svg>
