<?xml version="1.0" encoding="utf-8"?>
<!-- Generator: Adobe Illustrator 26.3.1, SVG Export Plug-In . SVG Version: 6.00 Build 0)  -->
<svg version="1.1" id="Layer_1" xmlns="http://www.w3.org/2000/svg" xmlns:xlink="http://www.w3.org/1999/xlink" x="0px" y="0px"
	 viewBox="0 0 200 200" style="enable-background:new 0 0 200 200;" xml:space="preserve">
<g>
	<g>
		<path d="M54.82,62.09c0.41-0.34-0.17-0.04,0.42-0.2c0.22-0.06,0.48-0.08,0.71-0.12c0.72-0.1,1.45-0.15,2.17-0.26
			c2.03-0.29,4.05-0.56,6.09-0.74c4.24-0.38,8.52-0.3,12.66-1.43c-0.8-0.29-1.6-0.58-2.4-0.87c0.02,0.1,0.09,0.26,0.05,0.36
			c-0.09,0.24,0.1-0.38-0.03,0.09c-0.04,0.15-0.09,0.18,0,0.02c-0.08,0.14-0.16,0.28-0.26,0.41c-0.23,0.29,0.34-0.37-0.14,0.15
			c-0.11,0.12-0.22,0.23-0.33,0.34c-0.36,0.36-0.3,0.3-0.7,0.63c-1.39,1.13-2.91,2.11-4.42,3.08c-1.35,0.88-2.64,1.74-3.8,2.87
			c-1.92,1.88-3.29,4.21-4.67,6.49c1.21-0.5,2.43-1,3.64-1.51c-2.09-0.9-3.02-3.24-4.33-4.94c-1.62-2.11-3.8-3.77-5.16-6.08
			c-1.07-1.8-5.5,0.51-4.46,2.27c1.49,2.51,3.89,4.25,5.55,6.61c1.51,2.15,2.71,4.38,5.24,5.46c1.2,0.52,3.03-0.5,3.64-1.51
			c1.27-2.1,2.49-4.4,4.4-6c1.17-0.98,2.57-1.73,3.84-2.58c1.6-1.06,3.19-2.18,4.57-3.53c1-0.98,2.38-2.58,2.02-4.11
			c-0.27-1.14-1.44-1.13-2.4-0.87c-4.28,1.17-8.94,0.87-13.33,1.35c-1.91,0.21-3.81,0.52-5.72,0.74c-1.88,0.21-3.87,0.62-5.36,1.87
			c-0.67,0.57-1.59,1.65-0.71,2.45C52.4,63.28,54.13,62.67,54.82,62.09L54.82,62.09z"/>
	</g>
</g>
<g>
	<g>
		<path d="M124.7,92.04c1.37-1.72,4.22-1.81,6.21-2.19c1.2-0.23,2.26-0.65,3.38-1.12c1.35-0.56,2.91-1.18,4.34-0.54
			c-0.63-1.29-1.26-2.59-1.89-3.88c-1.09,4.68-0.8,9.47-0.29,14.2c0.57-0.09,1.13-0.18,1.7-0.26c-3.62-4.4-8.64-7-12.96-10.59
			c-0.73-0.61-1.37-0.32-1.33,0.65c0.05,1.1,0.7,2.47,1.55,3.18c4.01,3.33,8.93,5.82,12.22,9.82c0.26,0.32,0.74,0.84,1.21,0.74
			c0.45-0.09,0.53-0.6,0.49-1c-0.48-4.46-0.78-8.9,0.25-13.31c0.28-1.19-0.77-3.37-1.89-3.88c-3.12-1.41-5.8,0.87-8.79,1.47
			c-2.37,0.48-5.18,0.59-6.81,2.63C121.19,89.08,123.71,93.28,124.7,92.04L124.7,92.04z"/>
	</g>
</g>
<g>
	<g>
		<path d="M23.33,161.68c0.74-1.58,0.98-3.15,0.71-4.87c-0.22-1.42-0.7-2.79-0.84-4.22c-0.13-1.28-0.06-2.74,0.84-3.74
			c0.8-0.88,2.07-1.05,3.19-1.14c2.5-0.2,5.04,0.16,7.51,0.52c3.64,0.53,6.79,2.37,10.09,3.86c-1.09-0.92-2.18-1.84-3.28-2.76
			c-1.23,1.34-2.99,1.98-4.45,3.01c-1.69,1.19-3.05,2.76-4.6,4.11c-3.06,2.66-6.65,4.52-10.58,5.48c-0.67,0.16,0.9,1.42,1.05,1.54
			c0.53,0.42,1.94,1.65,2.73,1.46c3.91-0.95,7.53-2.76,10.6-5.36c1.57-1.33,2.94-2.89,4.59-4.13c1.53-1.15,3.45-1.81,4.76-3.24
			c0.54-0.59-2.87-2.58-3.28-2.76c-3.45-1.55-6.79-3.48-10.57-4.09c-2.64-0.43-5.4-0.81-8.08-0.65c-1.11,0.07-2.36,0.22-3.3,0.88
			c-1.13,0.79-1.39,2.21-1.39,3.5c0,1.5,0.42,2.92,0.73,4.37c0.41,1.93,0.31,3.59-0.53,5.39C18.82,159.72,23.1,162.17,23.33,161.68
			L23.33,161.68z"/>
	</g>
</g>
<g>
	<g>
		<path d="M182.93,151.19c1.26-3.51-1.75-6.95-2.51-10.24c-0.39-1.7-0.66-3.44-1.32-5.07c-0.74-1.84-2.16-4.03-4.18-4.64
			c-1.57-0.47-3.17,0.33-4.51,1.11c-1.64,0.95-3.24,1.97-4.84,2.98c-3.88,2.45-7.78,5.02-12.25,6.28c-1.6,0.45,1.44,3.84,2.32,4.01
			c8.84,1.69,17.84,3.49,25.94,7.57c0.84,0.42,1.32,0.06,1.06-0.86c-0.29-1.02-1.28-2.25-2.24-2.74
			c-8.39-4.22-17.57-6.18-26.74-7.93c0.77,1.34,1.55,2.67,2.32,4.01c3.67-1.03,6.99-2.87,10.21-4.87c1.63-1.01,3.24-2.06,4.89-3.05
			c1.2-0.72,2.36-1.55,3.64-2.13c0.7-0.32,1.29-0.31,2.01-0.46c0.64-0.14-0.8-0.26-0.84-0.92c0.01,0.18,0.17,0.45,0.23,0.63
			c0.48,1.47,0.7,3.01,1.07,4.51c0.65,2.61,3.27,5.65,2.28,8.41C179,149.12,182.47,152.47,182.93,151.19L182.93,151.19z"/>
	</g>
</g>
<g>
	<g>
		<path d="M157.73,64.25c1.06-1.68-0.84-2.89-0.45-4.55c0.43-1.81,2.77-1.52,4.18-1.62c2.61-0.2,5.2-0.06,7.81-0.16
			c0.81-0.03,1.62-0.19,2.43-0.28c0.75-0.09,1.7-0.29,2.42,0.03c-1.05-1.26-2.1-2.51-3.15-3.77c-0.44,1.08-0.97,2.16-1.17,3.32
			c-0.18,1.04-0.03,2.03,0.22,3.05c0.26,1.08,0.52,2.08-0.89,2.11c-0.92,0.02-1.86-0.12-2.77-0.2c-1.42-0.12-2.85-0.21-4.27-0.27
			c-2.75-0.13-5.5-0.17-8.26-0.17c-0.12,0,0.4,0.81,0.32,0.69c0.32,0.49,0.71,0.95,1.09,1.4c0.38,0.45,0.78,0.89,1.22,1.28
			c0.17,0.15,0.4,0.42,0.64,0.42c2.75,0,5.51,0.04,8.26,0.17c1.37,0.06,2.74,0.15,4.11,0.26c0.97,0.08,1.96,0.23,2.94,0.21
			c1.29-0.03,1.21-0.92,0.98-1.97c-0.24-1.08-0.5-2.08-0.31-3.19c0.2-1.16,0.73-2.24,1.17-3.32c0.17-0.42-0.99-1.59-1.19-1.83
			c-0.52-0.62-1.18-1.6-1.95-1.94c-1.38-0.61-3.32,0.09-4.75,0.2c-2.59,0.21-5.21-0.05-7.81,0.15c-1.44,0.11-3.95-0.24-4.49,1.55
			c-0.51,1.7,1.46,3.02,0.43,4.65c-0.24,0.37,1.18,1.83,1.41,2.09C155.99,62.68,157.61,64.43,157.73,64.25L157.73,64.25z"/>
	</g>
</g>
<g>
	<g>
		<path d="M50.97,115.7c0.13-1.41-0.61-2.65-1.24-3.86c-0.32-0.61-0.66-1.23-0.84-1.9c-0.07-0.25-0.13-0.5-0.1-0.76
			c0.01-0.08,0.08-0.24,0.07-0.33c-0.01-0.07,0.03-0.13,0.1-0.18c-0.33,0.33-0.7,0.58-1.12,0.74c-0.06,0.03-0.13,0.05-0.19,0.08
			c0.23-0.07,0.45-0.13,0.68-0.19c0.18-0.04,0.35-0.08,0.54-0.12c0.54-0.11,1.08-0.19,1.62-0.26c1.23-0.16,2.47-0.23,3.72-0.26
			c2.39-0.06,4.78,0.01,7.18-0.03c1.49-0.02,3.16-0.38,4.64-0.17c0.53,0.08,0.57,0.16,0.43,0.68c-0.19,0.72-0.6,1.39-0.94,2.04
			c-0.3,0.57-0.68,1.16-0.86,1.78c-0.21,0.71-0.06,1.53,0.01,2.25c0.09,0.88,0,1.6-0.08,2.45c0.3-3.3,3.26-0.98,1.98-1.19
			c-0.22-0.04-0.45-0.04-0.67-0.08c-0.5-0.09-0.98-0.26-1.46-0.41c-5.1-1.61-10.48,0.2-15.56-1.3c-0.96-0.28-2.21,0.39-3,0.87
			c-0.2,0.12-1.96,1.39-1.15,1.63c2.97,0.88,6.01,0.69,9.06,0.61c1.4-0.03,2.81-0.04,4.21,0.14c1.17,0.16,2.22,0.58,3.35,0.87
			c1.14,0.29,2.23,0.39,3.38,0.09c1.45-0.37,3.26-1.2,4.12-2.51c1.09-1.68-0.3-3.75,0.43-5.49c0.36-0.86,0.87-1.66,1.27-2.51
			c0.25-0.52,0.75-1.44,0.41-2.02c-0.34-0.57-1.43-0.53-1.98-0.53c-0.4,0-0.81,0.02-1.21,0.05c-0.29,0.02-0.58,0.04-0.87,0.06
			c-0.13,0.01-0.26,0.02-0.39,0.03c0.15-0.01,0.15-0.01,0,0c-5.73,0.32-11.6-0.48-17.2,1.2c-2.11,0.63-5.61,2.11-4.95,4.88
			c0.43,1.8,2.26,3.47,2.08,5.4C46.37,118.45,50.85,116.98,50.97,115.7L50.97,115.7z"/>
	</g>
</g>
<g>
	<g>
		<path d="M92.18,38.19c-1.01-1.2-1.48-3.14-0.37-4.5c0.79-0.96,3.12-0.78,4.3-0.82c5.31-0.18,10.6,0.55,15.91,0.43
			c1-0.02,1.54-0.68,1.02-1.63c-0.57-1.04-1.84-1.76-2.99-1.88c-4.15-0.44-4.13,5.16-6.24,7.36c-1.01,1.06-3.93,0.46-5.36,0.34
			c-2.96-0.25-5.98-0.8-8.94-0.74c-1,0.02-1.54,0.68-1.02,1.63c0.51,0.94,1.88,1.91,2.99,1.88c2.92-0.06,5.9,0.47,8.81,0.72
			c2.09,0.18,4.99,0.73,6.9-0.41c1.42-0.84,1.99-2.71,2.61-4.13c0.35-0.8,0.7-1.62,1.2-2.34c0.2-0.28,0.36-0.49,0.59-0.66
			c0.06-0.04,0.4-0.22,0.31-0.18c0.15-0.06-0.14,0,0.14,0.02c-0.66-1.17-1.31-2.34-1.97-3.51c-6.26,0.14-12.48-0.8-18.73-0.26
			c-1.72,0.15-3.44,0.48-4.13,2.27c-1,2.62-0.13,4.98,1.61,7.03c0.68,0.81,2.04,1.67,3.16,1.41C93.06,39.98,92.74,38.85,92.18,38.19
			L92.18,38.19z"/>
	</g>
</g>
<g>
	<g>
		<path d="M100.75,149.9c-0.7-1.29-1.59-2.43-2.45-3.62c-0.69-0.96-1.55-2.03-1.8-3.22c-0.05-0.24-0.03-0.67-0.02-0.7
			c0.03-0.12,0.06-0.08-0.01-0.07c0.97-0.1,2.36-0.12,3.6-0.11c3.21,0.03,6.45,0.04,9.65,0.25c3.23,0.22,6.41,0.63,9.64,0.12
			c-1.17-0.63-2.34-1.25-3.51-1.88c-1.12,3.45-2.25,6.9-3.02,10.45c0.9-0.37,1.8-0.74,2.71-1.12c-3.11-0.57-6.25-0.12-9.38,0
			c-3.46,0.14-6.95,0.03-10.42,0.03c-0.89,0-2.25,0.45-2.01,1.58c0.23,1.12,1.95,1.52,2.87,1.52c3.34,0,6.69,0.08,10.03-0.01
			c2.79-0.08,5.66-0.62,8.43-0.12c0.9,0.17,2.47-0.01,2.71-1.12c0.77-3.55,1.9-7,3.02-10.45c0.2-0.63-0.58-1.24-1.02-1.49
			c-0.75-0.42-1.65-0.52-2.49-0.39c-3.41,0.54-6.99-0.2-10.42-0.32c-3.58-0.13-7.28-0.39-10.86-0.14c-2.17,0.15-4.87,0.95-4.46,3.65
			c0.46,3.04,3.29,5.4,4.71,8C97.15,152.42,102,152.2,100.75,149.9L100.75,149.9z"/>
	</g>
</g>
<g>
	<g>
		<path d="M97.93,97.97c0.57-1.57-0.14-3.51,0.58-5.03c-0.01,0.01,0.16-0.36,0.16-0.28c0.03-0.41,0.06,0.3-0.05-0.12
			c-0.02-0.09-1.21-0.47-1.12-0.72c0-0.01,0.25,0.35,0.26,0.36c0.19,0.31,0.34,0.63,0.47,0.96c0.02,0.05,0.15,0.44,0.15,0.43
			c0.02,0.07,0.04,0.52,0.06,0.25c-0.1,1.49,1.99,3.55,3.5,3.31c2.8-0.44,5.65,0.01,8.47-0.29c-1.13-0.84-2.25-1.67-3.38-2.51
			c0.24,0.77-1.44,2.05-1.84,2.5c-0.79,0.89-1.18,1.81-0.68,2.96c0.7,1.63,2.34,2.74,3.95,3.35c0.59,0.23,1.21,0.38,1.83,0.55
			c0.33,0.09,0.66,0.19,0.99,0.28c0.45,0.12,0.48,0.23,0.04-0.08c-0.43-1.04-0.86-2.08-1.28-3.12c-3.71,1.8-8.1-0.15-12.02,0.48
			c-1.72,0.28-2.26,1.36-3.14,2.68c-1.32,1.99-3.34,3.24-5.18,4.71c1.22,0.78,2.43,1.57,3.65,2.35c-0.5-1.63,0.52-3.44,1.03-4.94
			c0.47-1.36-0.66-2.61-1.62-3.47c-1.46-1.31-3.15-2.22-4.96-2.93c-0.77-0.3-1.57-0.58-2.37-0.8c-0.82-0.22-2.02-0.1-2.74-0.52
			c0.69,1.1,1.38,2.19,2.07,3.29c1.14-0.96,2.81-1.23,4.21-1.62c1.85-0.52,3.49-0.93,5.44-0.95c2.1-0.02-0.89-3.81-2.36-3.79
			c-2.19,0.02-4.07,0.41-6.17,1c-1.63,0.45-3.42,0.81-4.75,1.93c-1.06,0.89,1.49,2.96,2.07,3.29c1.38,0.81,2.87,0.69,4.33,1.15
			c1.35,0.42,2.6,0.93,3.78,1.69c0.68,0.44-1.16-1.03-0.72-1.34c0.05-0.03-0.09,0.16-0.16,0.28c-0.29,0.5-0.42,1.08-0.59,1.62
			c-0.52,1.72-0.68,3.1-0.15,4.84c0.3,1,2.49,3.27,3.65,2.35c1.74-1.39,3.69-2.58,4.99-4.43c0.96-1.37,1.3-2.51,3.13-2.69
			c3.81-0.37,8.04,1.33,11.67-0.44c1.35-0.66-0.67-2.68-1.28-3.12c-0.97-0.69-2.03-1.02-3.16-1.33c-0.57-0.16-1.13-0.35-1.69-0.51
			c-1.13-0.32,3-0.05,1.21,1.61c-0.03,0.03,0.05-0.18,0.09-0.22c1.5-1.52,3.13-3.08,2.41-5.36c-0.39-1.23-2.05-2.65-3.38-2.51
			c-2.82,0.29-5.65-0.15-8.47,0.29c1.17,1.1,2.34,2.21,3.5,3.31c0.09-1.42-0.65-2.89-1.36-4.08c-0.93-1.56-2.5-3.43-4.39-3.78
			c-3.14-0.58-1.98,4.58-2.59,6.26C93.5,96.51,97.33,99.61,97.93,97.97L97.93,97.97z"/>
	</g>
</g>
<g>
	<g>
		<path d="M158.32,109.46c0.42-1.31,0.94-2.6,1.57-3.83c0.34-0.66,0.71-1.32,1.15-1.92c0.21-0.29,0.44-0.55,0.68-0.81
			c0.64-0.71,1.02-0.17-1.48,0.23c-0.63-0.02-1.27-0.05-1.9-0.07c0.67,2.41,1.94,6.12,4.64,6.88c1.77,0.5,3.7,0.18,5.48-0.07
			c0.76-0.11,1.54-0.26,2.32-0.2c0.88,0.07,0.81,0.46,0.28,1.01c-0.24,0.25-0.55,0.33-0.31,0.24c0.46-0.16-0.22,0.05-0.37,0.09
			c-0.53,0.12-0.01,0.01-0.55,0.11c-1.55,0.31-3.1,0.64-4.59,1.18c-2.05,0.75-4.65,2.45-3.61,5.03c1.06,2.63,4.57,3.39,5.46,6.15
			c0.21-0.18,0.42-0.35,0.63-0.53c-1,0.52,1.1-0.29,1.18-0.18c-0.06-0.08-0.64-0.05-0.76-0.07c-0.48-0.07-0.94-0.2-1.41-0.35
			c-0.97-0.31-1.91-0.72-2.86-1.1c-1.92-0.76-3.75-1.16-5.82-1.07c-4.48,0.21-9.57,1.45-12.94,4.56c1.6-0.33,3.21-0.66,4.81-0.99
			c0.56-1.74,1.75-3.34,2.87-4.77c0.66-0.85,1.25-1.41,0.64-2.46c-1.1-1.9-3.84-3.86-6.03-4.11c0.04,0.17,0.08,0.34,0.12,0.51
			c0.48-0.29,0.34-0.29-0.43,0c-0.77,0.16-0.94,0.22-0.5,0.17c0.27,0.06,0.63-0.01,0.91-0.01c0.67,0,1.35,0.02,2.02-0.01
			c1.7-0.08,3.38-0.41,4.98-1c0.5-0.18,1.53-0.54,0.71-0.9c-0.79-0.35-2.63,0.32-3.37,0.6c1.56-0.58,0.89-0.21,0.23-0.21
			c-0.37,0-0.74-0.01-1.11-0.01c-0.83,0-1.66,0.02-2.48,0.12c-1.8,0.21-3.77,0.66-5.28,1.71c-0.35,0.24-0.33,0.46,0.12,0.51
			c1.07,0.13,2.16,0.91,3,1.53c0.9,0.66,2.02,1.51,2.43,2.58c0.38,0.98-0.69,1.74-1.23,2.47c-1,1.33-1.94,2.82-2.46,4.41
			c-0.12,0.36,2.18,0.01,2.23,0c0.85-0.18,1.93-0.38,2.59-0.99c2.77-2.55,6.01-2.62,9.37-1.29c1.72,0.68,3.45,1.47,5.31,1.64
			c2.25,0.2,4.77-0.35,6.77-1.4c0.06-0.03,0.7-0.31,0.63-0.53c-0.63-1.96-2.66-3.05-4.09-4.36c-1.43-1.31-2.37-3.52-0.57-5.01
			c0.1-0.08,0.74-0.45,0.55-0.35c0.14-0.07,0.02-0.01,0.12-0.04c0.24-0.06,0.48-0.11,0.73-0.17c0.18-0.04,0.16-0.03-0.04,0.01
			c0.12-0.02,0.24-0.05,0.37-0.07c0.38-0.08,0.76-0.15,1.13-0.23c0.54-0.11,1.07-0.24,1.59-0.38c1.76-0.47,4.24-1.12,4.73-3.14
			c-0.04-0.04-0.08-0.08-0.12-0.11c-1.57-0.46-3.18-0.38-4.79-0.18c-1.39,0.18-3.02,0.68-4.38,0.13c-2.27-0.92-3.36-4.36-3.96-6.51
			c-0.12-0.43-1.69-0.1-1.9-0.07c-2.5,0.41-4.27,1.38-5.58,3.54c-0.98,1.62-1.7,3.41-2.27,5.21c-0.12,0.38,2.38-0.02,2.55-0.06
			C156.61,110.4,158.1,110.17,158.32,109.46L158.32,109.46z"/>
	</g>
</g>
<g>
	<g>
		<path d="M20.96,93.86c-0.03-0.01-0.06-0.03-0.1-0.04c0.63,0.3,1.24,0.65,1.81,1.06c-0.05-0.06-0.12-0.1-0.17-0.16
			c-0.15-0.19-0.3-0.38-0.4-0.6c-0.18-0.41-0.19-0.86-0.08-1.29c0.27-1.07,1.17-1.91,2.04-2.53c2.43-1.73,5.52-2.2,8.44-1.93
			c0.64,0.06,1.28,0.15,1.9,0.32c0.17,0.04,0.33,0.09,0.49,0.15c0.07,0.02,0.47,0.17,0.19,0.06c0.1,0.04,0.19,0.08,0.28,0.11
			c0.1,0.04,0.2,0.08,0.3,0.13c-0.18-0.08-0.21-0.09-0.08-0.03c0.12,0.06,0.48,0.25,0.02,0.01c0.4,0.21-0.04-0.02-0.1-0.06
			c-0.77-0.44,0.28,0.27-0.29-0.18c0.04,0.04,0.31,0.22,0.04,0.02c0.31,0.23,0.73,0.61,1.02,0.99c0.65,0.88,0.78,1.89,0.15,2.82
			c-0.78,1.16-2.07,1.71-3.41,1.87c-1.54,0.18-3.08,0-4.62-0.01c-1.75,0-3.58,0.77-5.32,0.32c-0.96-0.25,0.43,0.71,0.58,0.8
			c0.9,0.6,1.98,1.31,3.03,1.58c1.99,0.52,3.83-0.2,5.83-0.2c1.7,0,3.43,0.24,5.13-0.07c1.43-0.26,3.06-1.06,3.49-2.58
			c0.38-1.34-0.64-2.54-1.57-3.37c-1.65-1.48-3.69-2.59-5.68-3.55c-1.61-0.78-3.27-1.39-5.05-1.61c-3.37-0.42-7.28,0.17-9.87,2.53
			c-0.96,0.88-1.74,2.15-1.13,3.45c0.41,0.87,1.33,1.48,2.1,1.99c1.45,0.96,3.01,1.76,4.65,2.35c0.95,0.35-0.47-0.73-0.58-0.8
			C23.05,94.82,22.03,94.25,20.96,93.86L20.96,93.86z"/>
	</g>
</g>
<g>
	<g>
		<path d="M131.85,59.39c-0.86-0.97-1.85-1.76-2.77-2.66c-0.22-0.22-0.48-0.49-0.61-0.77c-0.18-0.38-0.26-0.82-0.09-1.31
			c0.74-2.24,3.62-2.57,5.63-2.65c1.04-0.04,2.24,0.04,3.39,0.2c0.13,0.02,0.88,0.15,0.43,0.06c0.26,0.05,0.51,0.11,0.77,0.17
			c0.18,0.05,0.36,0.1,0.54,0.15c0.41,0.12-0.29-0.11,0.06,0.02c0.2,0.07,0.39,0.14,0.59,0.22c0.28,0.11,0.55,0.23,0.82,0.35
			c-0.77-0.33,0.47,0.35,0.08,0.05c-0.34-0.26,0.1,0.08,0.14,0.11c-0.06-0.04-0.43-0.28-0.1-0.06c-0.36-0.23-0.07-0.18-0.05-0.04
			c0.07,0.34-0.05-0.15,0.09,0.15c0.46,0.97,0.06,2.31-0.37,3.34c-0.46,1.09-1.09,2.15-2.19,2.68c-0.47,0.23-0.95,0.32-1.55,0.32
			c0.23,0-0.08-0.01-0.1-0.01c-0.19-0.01-0.39-0.04-0.58-0.06c-0.64-0.08,0.19,0.05-0.2-0.03c-0.26-0.05-0.51-0.12-0.77-0.19
			c-0.65-0.18-1.93-0.17-1.51,0.85c0.42,1.01,1.8,1.75,2.79,2.02c2.97,0.81,6.25,0.84,7.97-2.13c0.74-1.27,1.39-3.02,1.13-4.51
			c-0.33-1.88-1.82-3.18-3.37-4.13c-2.66-1.64-5.87-2.43-8.97-2.59c-2.66-0.13-6.32-0.11-8.26,2.04c-1.28,1.42-1.14,3.12-0.12,4.63
			c0.52,0.76,1.19,1.41,1.87,2.02c0.28,0.26,0.57,0.5,0.86,0.76c0.14,0.12,0.27,0.24,0.4,0.37c0.07,0.07,0.59,0.61,0.24,0.22
			c0.78,0.87,1.89,1.63,3.08,1.73C132,60.8,132.54,60.17,131.85,59.39L131.85,59.39z"/>
	</g>
</g>
<g>
	<g>
		<path d="M143.56,176.23c-0.69-0.4-1.4-0.76-2.13-1.07c-0.4-0.17-0.81-0.34-1.21-0.51c-0.15-0.06-0.3-0.13-0.46-0.19
			c-0.42-0.17,0.52,0.23-0.14-0.06c-0.22-0.1-0.66-0.42-0.88-0.42c0.26,0,0.43,0.25,0.16,0.08c-0.05-0.03-0.09-0.05-0.14-0.08
			c-0.22-0.14-0.18-0.11,0.1,0.08c-0.1-0.01-0.3-0.22-0.37-0.28c0.4,0.31,0.01-0.01-0.06-0.08c-0.34-0.34,0.16,0.25-0.12-0.14
			c-0.11-0.15-0.21-0.3-0.3-0.47c-1.38-2.7,1.4-4.53,3.64-5.27c1.13-0.37,2.37-0.44,3.58-0.49c0.35-0.01,0.69-0.02,0.95,0
			c0.19,0.01,0.38,0.04,0.57,0.05c0.52,0.05,0.01,0.01,0.02,0c0.06,0.01,0.11,0.03,0.17,0.04c-0.37-0.1-0.71-0.25-1.03-0.45
			c0.25,0.16-0.84-0.56-0.77-0.66c-0.01,0.02,0.41,0.57,0.45,0.62c0.59,0.86,1.14,1.75,1.63,2.68c-0.17-0.32,0,0.1,0.02,0.28
			c0.02,0.22,0.03,0.42-0.01,0.64c-0.07,0.42-0.34,0.89-0.59,1.13c-1.64,1.53-4.41,1.09-5.87,2.92c-0.6,0.76,3.6,3.3,4.51,2.16
			c0.56-0.7,1.83-1.05,2.76-1.34c1.11-0.35,2.27-0.7,3.09-1.56c1.79-1.89-0.35-4.58-1.51-6.18c-2.31-3.19-7.22-3.44-10.78-2.68
			c-2.67,0.57-6.49,2.4-5.63,5.75c0.52,2.01,2.23,3.43,3.98,4.41c1.01,0.56,2.06,1.02,3.13,1.46c0.18,0.07,0.35,0.15,0.53,0.22
			c0.42,0.17-0.13-0.04-0.16-0.07c0.06,0.06,0.22,0.09,0.3,0.13c0.19,0.09,0.39,0.17,0.57,0.27c0.07,0.03,0.14,0.07,0.21,0.11
			c0.29,0.13-0.58-0.32-0.12-0.06c0.55,0.32,1.16,0.6,1.78,0.75c0.29,0.07,0.96,0.22,1.26,0.03
			C145.45,177.45,143.86,176.41,143.56,176.23L143.56,176.23z"/>
	</g>
</g>
</svg>
